<svg xmlns="http://www.w3.org/2000/svg" xmlns:xlink="http://www.w3.org/1999/xlink" width="100" height="100" viewBox="0 0 100 100">
  <defs>
    <clipPath id="clip-path">
      <rect id="長方形_15279" data-name="長方形 15279" width="65.01" height="48.293" fill="#fa702c"/>
    </clipPath>
  </defs>
  <g id="グループ_2672" data-name="グループ 2672" transform="translate(-327 -717)">
    <circle id="楕円形_22" data-name="楕円形 22" cx="50" cy="50" r="50" transform="translate(327 717)" fill="#fa702c" opacity="0.1"/>
    <g id="グループ_2565" data-name="グループ 2565" transform="translate(344.286 742.956)">
      <g id="グループ_2565-2" data-name="グループ 2565" transform="translate(0 0)" clip-path="url(#clip-path)">
        <path id="パス_10886" data-name="パス 10886" d="M28.114,27.726c-.024,0-.049,0-.074,0a28.146,28.146,0,0,0-4.412,0,.942.942,0,0,1-1.016-.939V22.908a28.1,28.1,0,0,0-3.732.692.942.942,0,0,1-1.176-.913V18.17a.943.943,0,0,1,.708-.913,30.084,30.084,0,0,1,4.2-.762V12.437a.943.943,0,0,1,.868-.939,30.108,30.108,0,0,1,4.709,0,.943.943,0,0,1,.868.939v4.057a30.084,30.084,0,0,1,4.2.762.943.943,0,0,1,.708.913v4.518a.942.942,0,0,1-1.176.913,28.057,28.057,0,0,0-3.732-.692v3.876a.942.942,0,0,1-.942.942m-4.56-6.8a.942.942,0,0,1,.942.942v3.912c.89-.039,1.785-.039,2.676,0V21.87a.941.941,0,0,1,1.016-.939,29.942,29.942,0,0,1,3.892.567V18.91a28,28,0,0,0-4.041-.619.942.942,0,0,1-.868-.939V13.321c-.891-.043-1.786-.043-2.676,0v4.031a.943.943,0,0,1-.868.939,28,28,0,0,0-4.041.619V21.5a29.973,29.973,0,0,1,3.892-.567c.025,0,.05,0,.074,0" transform="translate(-6.714 -4.325)" fill="#fa702c"/>
        <path id="パス_10887" data-name="パス 10887" d="M8.664,42.781a.943.943,0,0,1-.942-.942V3.291A.942.942,0,0,1,8.343,2.4a40.262,40.262,0,0,1,27.412,0,.942.942,0,0,1,.621.886V41.839a.942.942,0,1,1-1.884,0V3.957a38.383,38.383,0,0,0-24.885,0V40.519a40.1,40.1,0,0,1,22.042-.809.942.942,0,1,1-.449,1.83A38.221,38.221,0,0,0,8.986,42.725a.946.946,0,0,1-.322.056" transform="translate(-2.928 0)" fill="#fa702c"/>
        <path id="パス_10888" data-name="パス 10888" d="M78.558,42.781a.946.946,0,0,1-.322-.056,38.377,38.377,0,0,0-26.127,0,.942.942,0,0,1-1.263-.886V3.291a.942.942,0,0,1,.621-.886,40.263,40.263,0,0,1,27.412,0,.942.942,0,0,1,.621.886v9.254a.942.942,0,1,1-1.885,0V3.957a38.383,38.383,0,0,0-24.885,0V40.519a40.273,40.273,0,0,1,24.885,0V20.45a.942.942,0,1,1,1.885,0V41.839a.943.943,0,0,1-.942.942" transform="translate(-19.283 0)" fill="#fa702c"/>
        <path id="パス_10889" data-name="パス 10889" d="M19.269,50.621a.942.942,0,0,1-.184-1.866,36.433,36.433,0,0,1,13.972,0,.942.942,0,1,1-.37,1.847,34.534,34.534,0,0,0-13.232,0,.946.946,0,0,1-.186.019" transform="translate(-6.951 -18.233)" fill="#fa702c"/>
        <path id="パス_10890" data-name="パス 10890" d="M76,27.407a.955.955,0,0,1-.186-.019,34.53,34.53,0,0,0-13.232,0,.942.942,0,1,1-.37-1.847,36.454,36.454,0,0,1,13.971,0A.942.942,0,0,1,76,27.407" transform="translate(-23.304 -9.43)" fill="#fa702c"/>
        <path id="パス_10891" data-name="パス 10891" d="M76,15.8a.955.955,0,0,1-.186-.019,34.53,34.53,0,0,0-13.232,0,.942.942,0,1,1-.37-1.847,36.43,36.43,0,0,1,13.971,0A.942.942,0,0,1,76,15.8" transform="translate(-23.304 -5.028)" fill="#fa702c"/>
        <path id="パス_10892" data-name="パス 10892" d="M76,39.014A.955.955,0,0,1,75.811,39a34.53,34.53,0,0,0-13.232,0,.942.942,0,1,1-.37-1.847,36.454,36.454,0,0,1,13.971,0A.942.942,0,0,1,76,39.014" transform="translate(-23.304 -13.831)" fill="#fa702c"/>
        <path id="パス_10893" data-name="パス 10893" d="M76,50.621a.955.955,0,0,1-.186-.019,34.531,34.531,0,0,0-13.232,0,.942.942,0,1,1-.37-1.847,36.43,36.43,0,0,1,13.971,0A.942.942,0,0,1,76,50.621" transform="translate(-23.304 -18.233)" fill="#fa702c"/>
        <path id="パス_10894" data-name="パス 10894" d="M32.505,51.423a9.122,9.122,0,0,1-5.429-1.795H.942A.942.942,0,0,1,0,48.687V9.2a.942.942,0,0,1,.942-.942H2.409a.942.942,0,0,1,0,1.885H1.884V47.744H27.4a.939.939,0,0,1,.586.2,7.239,7.239,0,0,0,9.047,0,.939.939,0,0,1,.586-.2H63.126V10.138H62.6a.942.942,0,0,1,0-1.885h1.467a.942.942,0,0,1,.942.942V48.687a.942.942,0,0,1-.942.942H37.934a9.121,9.121,0,0,1-5.429,1.795" transform="translate(0 -3.13)" fill="#fa702c"/>
      </g>
    </g>
  </g>
</svg>
