<svg xmlns="http://www.w3.org/2000/svg" xmlns:xlink="http://www.w3.org/1999/xlink" width="100" height="100" viewBox="0 0 100 100">
  <defs>
    <clipPath id="clip-path">
      <rect id="長方形_15278" data-name="長方形 15278" width="70.431" height="58.636" fill="#fa702c"/>
    </clipPath>
  </defs>
  <g id="グループ_2675" data-name="グループ 2675" transform="translate(-940 -717)">
    <circle id="楕円形_24" data-name="楕円形 24" cx="50" cy="50" r="50" transform="translate(940 717)" fill="#fa702c" opacity="0.1"/>
    <g id="グループ_2564" data-name="グループ 2564" transform="translate(955 738)">
      <g id="グループ_2564-2" data-name="グループ 2564" transform="translate(0 0)" clip-path="url(#clip-path)">
        <path id="パス_10878" data-name="パス 10878" d="M42.641,33.145a1.055,1.055,0,0,1-.746-.31l-7.243-7.243L36.145,24.1l6.5,6.5L56.455,16.781A8.593,8.593,0,1,0,43.488,5.572a1.093,1.093,0,0,1-1.694,0A8.592,8.592,0,0,0,26.38,11.8a1.056,1.056,0,1,1-2.1.269A10.705,10.705,0,0,1,42.641,3.307,10.705,10.705,0,1,1,57.949,18.275L43.388,32.836a1.055,1.055,0,0,1-.747.31" transform="translate(-7.359 0)" fill="#fa702c"/>
        <path id="パス_10879" data-name="パス 10879" d="M39.269,27.556l-.073,0a1.057,1.057,0,0,1-.921-.7l-2.486-6.943-1.829,3.774a1.056,1.056,0,0,1-.951.6H21.543a1.056,1.056,0,0,1,0-2.112h10.8l2.638-5.442a1.056,1.056,0,0,1,1.944.1l2.521,7.04L41.421,20.1a1.056,1.056,0,0,1,.936-.566h6.49a1.056,1.056,0,1,1,0,2.112H43L40.2,26.989a1.055,1.055,0,0,1-.935.567" transform="translate(-6.231 -4.907)" fill="#fa702c"/>
        <path id="パス_10880" data-name="パス 10880" d="M81.278,57.372A1.056,1.056,0,0,1,80.42,55.7l10.2-14.239A11.287,11.287,0,0,0,92.7,34.25l-.785-13.306a1.549,1.549,0,0,0-1.546-1.458h0a1.449,1.449,0,0,0-1.43,1.264L86.991,36.038a1.056,1.056,0,1,1-2.1-.266l1.941-15.287a3.566,3.566,0,0,1,3.518-3.11h.013a3.663,3.663,0,0,1,3.655,3.446l.785,13.306a13.412,13.412,0,0,1-2.475,8.567l-10.2,14.238a1.054,1.054,0,0,1-.859.441" transform="translate(-24.399 -5.284)" fill="#fa702c"/>
        <path id="パス_10881" data-name="パス 10881" d="M64.446,62.057a1.03,1.03,0,0,1-.1,0,1.056,1.056,0,0,1-.949-1.153l.422-4.371A6.978,6.978,0,0,1,65.5,52.606l9.957-11.481a3.735,3.735,0,0,1,5.778,4.73l-6.241,8.08a1.056,1.056,0,0,1-1.671-1.292l6.241-8.08a1.623,1.623,0,0,0-2.511-2.056L67.1,53.99a4.876,4.876,0,0,0-1.177,2.741L65.5,61.1a1.057,1.057,0,0,1-1.05.955" transform="translate(-19.279 -12.116)" fill="#fa702c"/>
        <path id="パス_10882" data-name="パス 10882" d="M75.746,79.356a1.047,1.047,0,0,1-.191-.017L59.337,76.366a1.055,1.055,0,0,1-.848-1.229l1.126-6.143a1.056,1.056,0,0,1,1.229-.849l16.218,2.973a1.055,1.055,0,0,1,.848,1.229l-1.127,6.143a1.053,1.053,0,0,1-1.038.866M60.757,74.479,74.9,77.071l.745-4.065L61.5,70.413Z" transform="translate(-17.784 -20.72)" fill="#fa702c"/>
        <path id="パス_10883" data-name="パス 10883" d="M13.552,57.372a1.056,1.056,0,0,1-.86-.441L2.5,42.693A13.4,13.4,0,0,1,.022,34.126L.807,20.82a3.664,3.664,0,0,1,3.655-3.446h.013a3.566,3.566,0,0,1,3.517,3.11l1.94,15.287a1.056,1.056,0,1,1-2.095.266L5.9,20.75a1.449,1.449,0,0,0-1.431-1.264h0a1.55,1.55,0,0,0-1.546,1.459l-.785,13.3a11.291,11.291,0,0,0,2.083,7.213L14.41,55.7a1.056,1.056,0,0,1-.857,1.671" transform="translate(0 -5.284)" fill="#fa702c"/>
        <path id="パス_10884" data-name="パス 10884" d="M28.628,62.057a1.057,1.057,0,0,1-1.05-.955l-.422-4.371a4.876,4.876,0,0,0-1.177-2.741l-9.958-11.48a1.623,1.623,0,0,0-2.511,2.056l6.241,8.08a1.056,1.056,0,1,1-1.671,1.292l-6.24-8.08a3.735,3.735,0,0,1,5.778-4.73l9.957,11.481a6.978,6.978,0,0,1,1.683,3.921L29.68,60.9a1.056,1.056,0,0,1-.949,1.153,1.03,1.03,0,0,1-.1,0" transform="translate(-3.364 -12.116)" fill="#fa702c"/>
        <path id="パス_10885" data-name="パス 10885" d="M16.965,79.356a1.057,1.057,0,0,1-1.039-.866L14.8,72.347a1.056,1.056,0,0,1,.848-1.229l16.218-2.973a1.056,1.056,0,0,1,1.229.848l1.127,6.143a1.056,1.056,0,0,1-.848,1.229L17.155,79.339a1.091,1.091,0,0,1-.19.017m.1-6.351.745,4.066,14.14-2.593-.745-4.065Z" transform="translate(-4.496 -20.72)" fill="#fa702c"/>
      </g>
    </g>
  </g>
</svg>
