<svg xmlns="http://www.w3.org/2000/svg" xmlns:xlink="http://www.w3.org/1999/xlink" width="100" height="100" viewBox="0 0 100 100">
  <defs>
    <clipPath id="clip-path">
      <rect id="長方形_15280" data-name="長方形 15280" width="54.685" height="57.901" fill="#fa702c"/>
    </clipPath>
  </defs>
  <g id="グループ_2674" data-name="グループ 2674" transform="translate(-634 -717)">
    <circle id="楕円形_23" data-name="楕円形 23" cx="50" cy="50" r="50" transform="translate(634 717)" fill="#fa702c" opacity="0.1"/>
    <g id="グループ_2566" data-name="グループ 2566" transform="translate(657 738)">
      <g id="グループ_2566-2" data-name="グループ 2566" clip-path="url(#clip-path)">
        <path id="パス_10895" data-name="パス 10895" d="M45.733,57.9h-.019a.968.968,0,0,1-.949-.986c.142-7.59,2.229-11.838,4.247-15.946,2.381-4.846,4.629-9.424,3.39-19.452C50.15,3.3,32.379,2.1,31.622,2.062c-.022,0-.047,0-.07-.006A31.274,31.274,0,0,0,20.141,3.108C12.452,5.387,7.818,10.578,6.367,18.537c-.017.078-.667,2.94.836,4.205a1.916,1.916,0,0,1,.67,1.382c.165,2.414-3.628,7-5.9,9.524a.119.119,0,0,0-.033.063c.08.215.424.819,1.793,1.451,2.8,1.293,2.556,5.109,2.351,6.558A6.056,6.056,0,0,1,7.951,47.2c-.368,1.64-.679,3.482.292,4.588.873.995,2.835,1.382,5.668,1.124a47.729,47.729,0,0,0,13.065-3.158.967.967,0,1,1,.737,1.789,48.762,48.762,0,0,1-13.647,3.3c-3.556.326-5.942-.255-7.277-1.775-1.7-1.938-1.067-4.767-.727-6.288.5-2.216-1.607-3.926-1.628-3.943a.968.968,0,0,1-.342-.961c.008-.038.8-4.04-1.175-4.952a4.946,4.946,0,0,1-2.8-2.56A1.985,1.985,0,0,1,.532,32.35c4.14-4.584,5.65-7.532,5.4-8.16-2.4-2.005-1.5-5.888-1.458-6.052C8.2-2.278,30.738.015,31.765.133,32.746.2,51.92,1.847,54.322,21.28c1.311,10.6-1.172,15.655-3.573,20.543-1.924,3.918-3.914,7.97-4.049,15.13a.968.968,0,0,1-.967.949" transform="translate(0 0)" fill="#fa702c"/>
        <path id="パス_10896" data-name="パス 10896" d="M30.541,87.641a.968.968,0,0,1-.96-.856l-.424-3.662a.967.967,0,0,1,1.922-.223l.424,3.662a.967.967,0,0,1-.85,1.072.955.955,0,0,1-.112.006" transform="translate(-10.567 -29.739)" fill="#fa702c"/>
        <path id="パス_10897" data-name="パス 10897" d="M36.233,42.02a.97.97,0,0,1-.513-.147,9.832,9.832,0,1,1,10.438,0,.968.968,0,1,1-1.028-1.64,7.9,7.9,0,1,0-8.382,0,.967.967,0,0,1-.515,1.787" transform="translate(-11.276 -8.593)" fill="#fa702c"/>
        <path id="パス_10898" data-name="パス 10898" d="M43.3,62.3a5.45,5.45,0,0,1-1.505-.212,5.782,5.782,0,0,1-4.166-5.532V55.89a.967.967,0,0,1,.968-.967h9.409a.967.967,0,0,1,.967.967v.662a5.782,5.782,0,0,1-4.166,5.532A5.448,5.448,0,0,1,43.3,62.3M39.58,56.858a3.84,3.84,0,0,0,2.753,3.367,3.512,3.512,0,0,0,1.943,0,3.841,3.841,0,0,0,2.753-3.367Z" transform="translate(-13.641 -19.908)" fill="#fa702c"/>
        <path id="パス_10899" data-name="パス 10899" d="M45.978,18.33a.968.968,0,0,1-.968-.968v-2.73a.968.968,0,0,1,1.936,0v2.73a.968.968,0,0,1-.968.968" transform="translate(-16.315 -4.953)" fill="#fa702c"/>
        <path id="パス_10900" data-name="パス 10900" d="M35.434,21.156a.967.967,0,0,1-.839-.484L33.23,18.308a.968.968,0,0,1,1.676-.968L36.271,19.7a.968.968,0,0,1-.837,1.452" transform="translate(-11.998 -6.11)" fill="#fa702c"/>
        <path id="パス_10901" data-name="パス 10901" d="M27.712,28.876a.963.963,0,0,1-.483-.13l-2.365-1.365a.968.968,0,0,1,.968-1.676L28.2,27.07a.968.968,0,0,1-.485,1.806" transform="translate(-8.838 -9.271)" fill="#fa702c"/>
        <path id="パス_10902" data-name="パス 10902" d="M24.888,39.422h-2.73a.967.967,0,1,1,0-1.935h2.73a.967.967,0,1,1,0,1.935" transform="translate(-7.681 -13.588)" fill="#fa702c"/>
        <path id="パス_10903" data-name="パス 10903" d="M25.35,50.556a.968.968,0,0,1-.485-1.806l2.364-1.365a.968.968,0,0,1,.968,1.676l-2.365,1.365a.961.961,0,0,1-.483.13" transform="translate(-8.838 -17.129)" fill="#fa702c"/>
        <path id="パス_10904" data-name="パス 10904" d="M65.263,50.556a.961.961,0,0,1-.483-.13l-2.365-1.365a.968.968,0,0,1,.968-1.676l2.364,1.365a.968.968,0,0,1-.485,1.806" transform="translate(-22.449 -17.129)" fill="#fa702c"/>
        <path id="パス_10905" data-name="パス 10905" d="M68.248,39.422h-2.73a.967.967,0,1,1,0-1.935h2.73a.967.967,0,1,1,0,1.935" transform="translate(-23.398 -13.588)" fill="#fa702c"/>
        <path id="パス_10906" data-name="パス 10906" d="M62.9,28.876a.968.968,0,0,1-.485-1.806l2.365-1.365a.968.968,0,0,1,.968,1.676l-2.365,1.365a.963.963,0,0,1-.483.13" transform="translate(-22.449 -9.271)" fill="#fa702c"/>
        <path id="パス_10907" data-name="パス 10907" d="M55.747,21.156A.968.968,0,0,1,54.91,19.7l1.365-2.365a.968.968,0,0,1,1.676.968l-1.365,2.365a.967.967,0,0,1-.839.484" transform="translate(-19.857 -6.11)" fill="#fa702c"/>
        <path id="パス_10908" data-name="パス 10908" d="M44.307,49.529a.969.969,0,0,1-.968-.965l-.019-6.792-2.584-3.249a1.542,1.542,0,0,1,1.206-2.5h4.693a1.541,1.541,0,0,1,1.21,2.5l-1.111,1.408a.968.968,0,0,1-1.52-1.2l.608-.769H42.76l2.284,2.873a.961.961,0,0,1,.21.6l.021,7.128a.968.968,0,0,1-.965.97Z" transform="translate(-14.644 -13.058)" fill="#fa702c"/>
      </g>
    </g>
  </g>
</svg>
