<svg xmlns="http://www.w3.org/2000/svg" xmlns:xlink="http://www.w3.org/1999/xlink" width="100" height="100" viewBox="0 0 100 100">
  <defs>
    <clipPath id="clip-path">
      <rect id="長方形_15282" data-name="長方形 15282" width="60.638" height="66.461" fill="#6f43ab"/>
    </clipPath>
  </defs>
  <g id="グループ_2677" data-name="グループ 2677" transform="translate(-480 -717)">
    <circle id="楕円形_22" data-name="楕円形 22" cx="50" cy="50" r="50" transform="translate(480 717)" fill="#6f43ab" opacity="0.1"/>
    <g id="グループ_2572" data-name="グループ 2572" transform="translate(500 734)">
      <g id="グループ_2572-2" data-name="グループ 2572" transform="translate(0 0)" clip-path="url(#clip-path)">
        <path id="パス_10917" data-name="パス 10917" d="M59.469,77.267a1.166,1.166,0,0,1-1.159-1.049L56.6,59.273a9.6,9.6,0,0,0-7.991-8.5L38.364,49.1l-7.479,4.167a1.166,1.166,0,0,1-1.135,0L22.273,49.1,12.028,50.776a9.6,9.6,0,0,0-7.991,8.5L2.327,76.218a1.167,1.167,0,0,1-2.322-.234L1.716,59.038a11.94,11.94,0,0,1,9.936-10.566L22.3,46.733a1.172,1.172,0,0,1,.756.132l7.265,4.048,7.265-4.048a1.173,1.173,0,0,1,.756-.132l10.646,1.74A11.938,11.938,0,0,1,58.92,59.038l1.711,16.945a1.167,1.167,0,0,1-1.044,1.278c-.04,0-.079.006-.118.006" transform="translate(0 -10.806)" fill="#6f43ab"/>
        <path id="パス_10918" data-name="パス 10918" d="M28.9,48.258a1.167,1.167,0,0,1-1.072-1.626L28.955,44a1.167,1.167,0,1,1,2.145.918L29.973,47.55a1.166,1.166,0,0,1-1.073.708" transform="translate(-6.415 -10.014)" fill="#6f43ab"/>
        <path id="パス_10919" data-name="パス 10919" d="M48.94,48.258a1.166,1.166,0,0,1-1.073-.708L46.74,44.918A1.167,1.167,0,1,1,48.885,44l1.126,2.633a1.166,1.166,0,0,1-.613,1.531,1.154,1.154,0,0,1-.458.095" transform="translate(-10.79 -10.014)" fill="#6f43ab"/>
        <path id="パス_10920" data-name="パス 10920" d="M35.348,33.443c-6.242,0-10.091-5.7-11.588-10.811a3.923,3.923,0,0,1-1.892-3.491l-.113-1.783a3.886,3.886,0,0,1,1.437-3.71c-.066-2.429.083-9.384,3.812-11.2a.5.5,0,0,0,.14-.2c.541-1.133,1.387-1.81,4.3-2.143,3.611-.412,8.87.315,11.51,2.476l.1.084c1.7,1.392,4.521,3.693,4.435,10.97a3.883,3.883,0,0,1,1.447,3.717l-.113,1.784a3.957,3.957,0,0,1-1.795,3.44C45.6,27.933,41.843,33.443,35.348,33.443m-1.8-31.113a16.193,16.193,0,0,0-1.836.1c-2.179.249-2.347.6-2.457.831A2.47,2.47,0,0,1,28.024,4.55c-2.177,1.058-2.67,6.51-2.471,9.7a1.166,1.166,0,0,1-.73,1.157c-.439.176-.826.446-.739,1.8l.113,1.783c.075,1.191.364,1.5.906,1.682a1.168,1.168,0,0,1,.761.811c1.163,4.439,4.345,9.623,9.484,9.623,6.745,0,9.016-7.366,9.551-9.623a1.17,1.17,0,0,1,.745-.831c.517-.183.776-.479.852-1.662l.113-1.784c.085-1.357-.3-1.627-.737-1.8a1.167,1.167,0,0,1-.731-1.125c.245-6.695-2.046-8.565-3.563-9.8l-.1-.085c-1.691-1.385-5.03-2.062-7.93-2.062" transform="translate(-5.029 0)" fill="#6f43ab"/>
        <path id="パス_10921" data-name="パス 10921" d="M46.751,11.649a1.166,1.166,0,0,1-1.134-.9,1.759,1.759,0,0,0-.9-1.19c-1.554-.886-4.958-.641-9.1.653-3.811,1.189-6.654,1.122-8.449-.2A4.361,4.361,0,0,1,25.4,6.691a1.166,1.166,0,0,1,1.166-1.166h0a1.167,1.167,0,0,1,1.166,1.151,2.021,2.021,0,0,0,.842,1.479c1.14.81,3.393.75,6.342-.17,2.834-.885,8.027-2.119,10.955-.452a4.107,4.107,0,0,1,2.014,2.68,1.169,1.169,0,0,1-1.136,1.436M27.734,6.692h0Z" transform="translate(-5.876 -1.278)" fill="#6f43ab"/>
        <path id="パス_10922" data-name="パス 10922" d="M20.021,64.242a1.168,1.168,0,0,1-1.163-1.088c-.648-9.553,3.049-14.82,3.206-15.039a1.166,1.166,0,0,1,1.9,1.358c-.048.069-3.361,4.884-2.775,13.524A1.167,1.167,0,0,1,20.1,64.24l-.081,0" transform="translate(-4.345 -11.017)" fill="#6f43ab"/>
        <path id="パス_10923" data-name="パス 10923" d="M57.187,60.268h-.015a1.167,1.167,0,0,1-1.152-1.181c.079-6.148-2.205-9.6-2.228-9.633a1.166,1.166,0,0,1,1.923-1.32c.112.162,2.727,4.041,2.638,10.983a1.166,1.166,0,0,1-1.165,1.151" transform="translate(-12.396 -11.017)" fill="#6f43ab"/>
        <path id="パス_10924" data-name="パス 10924" d="M19.145,79.323A4.156,4.156,0,1,1,23.3,75.168a4.161,4.161,0,0,1-4.156,4.156m0-5.978a1.823,1.823,0,1,0,1.823,1.823,1.824,1.824,0,0,0-1.823-1.823" transform="translate(-3.467 -16.426)" fill="#6f43ab"/>
        <path id="パス_10925" data-name="パス 10925" d="M51.289,77.675H49.433a1.167,1.167,0,0,1-.988-.547,11.138,11.138,0,0,1-1.667-5.941c0-5.6,3.963-10.151,8.835-10.151s8.835,4.554,8.835,10.151a11.219,11.219,0,0,1-1.466,5.606,1.167,1.167,0,0,1-1.011.584H60.152a1.167,1.167,0,0,1,0-2.334h1.115a9,9,0,0,0,.848-3.857c0-4.311-2.917-7.818-6.5-7.818s-6.5,3.508-6.5,7.818a8.916,8.916,0,0,0,1,4.155h1.182a1.166,1.166,0,1,1,0,2.333" transform="translate(-10.82 -14.118)" fill="#6f43ab"/>
      </g>
    </g>
  </g>
</svg>
