<svg xmlns="http://www.w3.org/2000/svg" xmlns:xlink="http://www.w3.org/1999/xlink" width="100" height="100" viewBox="0 0 100 100">
  <defs>
    <clipPath id="clip-path">
      <rect id="長方形_15281" data-name="長方形 15281" width="58.954" height="66.464" fill="#6f43ab"/>
    </clipPath>
  </defs>
  <g id="グループ_2678" data-name="グループ 2678" transform="translate(-787 -717)">
    <circle id="楕円形_23" data-name="楕円形 23" cx="50" cy="50" r="50" transform="translate(787 717)" fill="#6f43ab" opacity="0.1"/>
    <g id="グループ_2571" data-name="グループ 2571" transform="translate(808 734)">
      <g id="グループ_2570" data-name="グループ 2570" transform="translate(0 0)" clip-path="url(#clip-path)">
        <path id="パス_10909" data-name="パス 10909" d="M68.594,77.517a1.166,1.166,0,0,1-1.159-1.049L65.773,60.012a9.29,9.29,0,0,0-7.731-8.222L47.7,50.1a1.167,1.167,0,0,1,.377-2.3l10.338,1.69a11.627,11.627,0,0,1,9.676,10.29l1.662,16.456a1.167,1.167,0,0,1-1.044,1.278c-.04,0-.079.006-.118.006" transform="translate(-10.808 -11.053)" fill="#6f43ab"/>
        <path id="パス_10910" data-name="パス 10910" d="M1.168,77.517a1.166,1.166,0,0,0,1.159-1.049L3.99,60.012a9.29,9.29,0,0,1,7.731-8.222L22.059,50.1a1.167,1.167,0,0,0-.377-2.3l-10.338,1.69a11.627,11.627,0,0,0-9.676,10.29L.006,76.233A1.167,1.167,0,0,0,1.05,77.511c.04,0,.079.006.118.006" transform="translate(0 -11.053)" fill="#6f43ab"/>
        <path id="パス_10911" data-name="パス 10911" d="M36.409,57.474A7.34,7.34,0,0,1,30.144,54a1.167,1.167,0,1,1,1.98-1.235,5.049,5.049,0,0,0,8.569,0A1.167,1.167,0,1,1,42.673,54a7.34,7.34,0,0,1-6.265,3.477" transform="translate(-6.932 -12.078)" fill="#6f43ab"/>
        <path id="パス_10912" data-name="パス 10912" d="M24,50.631a1.167,1.167,0,0,1-.187-2.318l3.152-.515a1.166,1.166,0,0,1,.376,2.3l-3.152.516a1.214,1.214,0,0,1-.189.015" transform="translate(-5.282 -11.053)" fill="#6f43ab"/>
        <path id="パス_10913" data-name="パス 10913" d="M28.1,49.346a1.154,1.154,0,0,1-.458-.095,1.167,1.167,0,0,1-.614-1.531l1.095-2.557a1.166,1.166,0,0,1,2.145.918l-1.094,2.557a1.167,1.167,0,0,1-1.073.708" transform="translate(-6.23 -10.284)" fill="#6f43ab"/>
        <path id="パス_10914" data-name="パス 10914" d="M47.56,49.346a1.166,1.166,0,0,1-1.073-.708l-1.094-2.557a1.166,1.166,0,1,1,2.145-.918l1.095,2.557a1.167,1.167,0,0,1-.614,1.531,1.154,1.154,0,0,1-.458.095" transform="translate(-10.478 -10.284)" fill="#6f43ab"/>
        <path id="パス_10915" data-name="パス 10915" d="M34.366,35.374c-6.075,0-9.822-5.54-11.28-10.51a3.858,3.858,0,0,1-1.825-3.411l-.109-1.732c-.115-1.792.419-3.052,1.585-3.757a12.692,12.692,0,0,1,1.112-2.6,8.5,8.5,0,0,0,.538-7.434l-.04-.094A1.167,1.167,0,1,1,26.5,4.926l.046.11a10.839,10.839,0,0,1-.671,9.49,10.275,10.275,0,0,0-1.009,2.5,1.17,1.17,0,0,1-.7.825c-.42.168-.762.414-.678,1.718l.108,1.733c.08,1.255.4,1.457.839,1.6a1.166,1.166,0,0,1,.76.811c1.127,4.3,4.206,9.32,9.177,9.32,6.526,0,8.725-7.133,9.243-9.32a1.166,1.166,0,0,1,.744-.83c.424-.15.707-.341.786-1.584l.11-1.732c.082-1.3-.258-1.55-.676-1.718a1.168,1.168,0,0,1-.731-1.152,6.009,6.009,0,0,0-1.607-4.028c-1.563-1.7-4.131-2.636-7.635-2.776a14.335,14.335,0,0,0-3.474.109,1.166,1.166,0,0,1-1.8-1.292c.277-.893,1.184-1.317,5.365-1.148S42,8.938,44,11.143a8.507,8.507,0,0,1,2.153,4.922,3.8,3.8,0,0,1,1.43,3.657l-.109,1.732a3.834,3.834,0,0,1-1.73,3.362c-1.391,5.206-5.053,10.559-11.373,10.559M31.558,9.413h0" transform="translate(-4.889 -0.975)" fill="#6f43ab"/>
        <path id="パス_10916" data-name="パス 10916" d="M51.848,36.506a1.024,1.024,0,0,1-.108-.005,1.167,1.167,0,0,1-1.055-1.269c.017-.187,1.632-18.87-6.671-27.972A15.263,15.263,0,0,0,32.226,2.333c-6.784,0-11.742,3.5-14.74,10.4-2.551,5.874-3.152,12.887-3.208,17.735a1.167,1.167,0,0,1-1.166,1.154H13.1a1.167,1.167,0,0,1-1.153-1.18C12.051,21.29,14.237,0,32.226,0A17.509,17.509,0,0,1,45.741,5.691c3.8,4.169,6.177,10.458,7.063,18.692a61.143,61.143,0,0,1,.2,11.063,1.168,1.168,0,0,1-1.161,1.059" transform="translate(-2.763 0)" fill="#6f43ab"/>
      </g>
    </g>
  </g>
</svg>
