<svg xmlns="http://www.w3.org/2000/svg" xmlns:xlink="http://www.w3.org/1999/xlink" width="34" height="34" viewBox="0 0 34 34">
  <defs>
    <clipPath id="clip-path">
      <rect id="長方形_15258" data-name="長方形 15258" width="34" height="34" transform="translate(0 0)" fill="#011976"/>
    </clipPath>
  </defs>
  <g id="グループ_2523" data-name="グループ 2523" transform="translate(0.257 0.257)">
    <g id="グループ_2522" data-name="グループ 2522" transform="translate(-0.257 -0.257)" clip-path="url(#clip-path)">
      <path id="パス_10755" data-name="パス 10755" d="M27.127,27.423a8.426,8.426,0,0,0-8.169-6.359H14.745a8.426,8.426,0,0,0-8.169,6.359,14.745,14.745,0,1,1,20.551,0m-1.876,1.54a14.739,14.739,0,0,1-16.805.007,6.32,6.32,0,0,1,6.3-5.8h4.213a6.324,6.324,0,0,1,6.3,5.8Zm-8.4,4.739A16.851,16.851,0,1,0,0,16.851,16.851,16.851,0,0,0,16.851,33.7m0-16.108a3.16,3.16,0,1,1,3.16-3.16,3.16,3.16,0,0,1-3.16,3.16m-5.266-3.16a5.266,5.266,0,1,0,5.266-5.266,5.266,5.266,0,0,0-5.266,5.266" transform="translate(0.235 0.235)" fill="#011976"/>
    </g>
  </g>
</svg>
