<svg xmlns="http://www.w3.org/2000/svg" xmlns:xlink="http://www.w3.org/1999/xlink" width="133.329" height="46.474" viewBox="0 0 133.329 46.474">
  <defs>
    <clipPath id="clip-path">
      <rect id="長方形_2712" data-name="長方形 2712" width="133.102" height="39.845" fill="none"/>
    </clipPath>
  </defs>
  <g id="グループ_2481" data-name="グループ 2481" transform="translate(-612 -803)">
    <rect id="長方形_2716" data-name="長方形 2716" width="133.224" height="46.474" transform="translate(612 803)" fill="none"/>
    <g id="グループ_2455" data-name="グループ 2455" transform="translate(612.227 806.098)">
      <path id="パス_2663" data-name="パス 2663" d="M99.751,75.225l-1.1,2.351-1.1-2.351h-.82l1.559,3.205V80.24h.732V78.431l1.545-3.205Z" transform="translate(-52.104 -40.63)" fill="#1a1311"/>
      <path id="パス_2664" data-name="パス 2664" d="M106.3,76.174h.014l.637,1.918h-1.294Zm-.325-.949-1.9,5.015h.773l.556-1.477h1.8l.556,1.477h.779l-1.9-5.015Z" transform="translate(-56.064 -40.63)" fill="#1a1311"/>
      <path id="パス_2665" data-name="パス 2665" d="M117.595,75.225l-1.9,2.487h-.013V75.225h-.732V80.24h.732V77.713h.013l1.9,2.527h.9l-1.958-2.527,1.958-2.487Z" transform="translate(-61.913 -40.63)" fill="#1a1311"/>
      <g id="グループ_2454" data-name="グループ 2454" transform="translate(0 0)">
        <g id="グループ_2453" data-name="グループ 2453" clip-path="url(#clip-path)">
          <path id="パス_2666" data-name="パス 2666" d="M126.524,78.533a1.645,1.645,0,0,1-.5,1.254,1.773,1.773,0,0,1-2.284,0,1.646,1.646,0,0,1-.5-1.254V75.225h.713v3.288a.93.93,0,1,0,1.848,0V75.225h.713Z" transform="translate(-66.346 -40.494)" fill="#1a1311"/>
          <path id="パス_2667" data-name="パス 2667" d="M131.454,80.11v-.654l2.119-3.577h-2.007v-.654h2.806v.654l-2.106,3.577h2.192v.654Z" transform="translate(-70.762 -40.494)" fill="#1a1311"/>
          <path id="パス_2668" data-name="パス 2668" d="M139.5,80.11V75.225h2.633v.654h-1.921v1.439h1.921v.653h-1.921v1.485h1.921v.654Z" transform="translate(-75.092 -40.494)" fill="#1a1311"/>
          <path id="パス_2669" data-name="パス 2669" d="M151.54,80.11V75.984h-.02l-1.644,4.126h-.429L147.8,75.984h-.014V80.11h-.712V75.225h1.122l1.466,3.743,1.472-3.743h1.122V80.11Z" transform="translate(-79.169 -40.494)" fill="#1a1311"/>
          <rect id="長方形_2710" data-name="長方形 2710" width="0.712" height="4.885" transform="translate(74.274 34.731)" fill="#1a1311"/>
          <path id="パス_2670" data-name="パス 2670" d="M171.918,80.11V75.879h-.938v-.654h2.588v.654h-.937V80.11Z" transform="translate(-92.04 -40.494)" fill="#1a1311"/>
          <path id="パス_2671" data-name="パス 2671" d="M179.782,80.1a2.535,2.535,0,1,1,2.541-2.522,2.541,2.541,0,0,1-2.541,2.522m0-4.417a1.882,1.882,0,1,0,1.828,1.9,1.848,1.848,0,0,0-1.828-1.9" transform="translate(-95.409 -40.387)" fill="#1a1311"/>
          <path id="パス_2672" data-name="パス 2672" d="M189.826,80.11V75.879h-.937v-.654h2.588v.654h-.938V80.11Z" transform="translate(-101.68 -40.494)" fill="#1a1311"/>
          <path id="パス_2673" data-name="パス 2673" d="M198.382,80.11l-.541-1.439h-1.755l-.542,1.439h-.752l1.855-4.885h.64l1.855,4.885Zm-.785-2.092-.621-1.868h-.013l-.627,1.868Z" transform="translate(-104.857 -40.494)" fill="#1a1311"/>
          <path id="パス_2674" data-name="パス 2674" d="M205.793,80.11V75.225h.713v4.231h1.7v.654Z" transform="translate(-110.78 -40.494)" fill="#1a1311"/>
          <path id="パス_2675" data-name="パス 2675" d="M219.207,80.11V75.225h.712v4.231h1.7v.654Z" transform="translate(-118.001 -40.494)" fill="#1a1311"/>
          <path id="パス_2676" data-name="パス 2676" d="M226.2,80.11V75.225h2.633v.654h-1.921v1.439h1.921v.653h-1.921v1.485h1.921v.654Z" transform="translate(-121.766 -40.494)" fill="#1a1311"/>
          <path id="パス_2677" data-name="パス 2677" d="M236.763,80.11l-.541-1.439h-1.755l-.542,1.439h-.752l1.855-4.885h.64l1.855,4.885Zm-.785-2.092-.621-1.868h-.013l-.627,1.868Z" transform="translate(-125.518 -40.494)" fill="#1a1311"/>
          <path id="パス_2678" data-name="パス 2678" d="M246.028,80.11l-1.611-2.264H244.4V80.11h-.712V75.225H245.2a1.724,1.724,0,0,1,1.3.41,1.613,1.613,0,0,1,.45,1.155,1.4,1.4,0,0,1-1.4,1.5l1.366,1.821ZM244.4,77.746h.489c.289,0,1.346-.012,1.346-.957,0-.41-.277-.911-1.083-.911H244.4Z" transform="translate(-131.18 -40.494)" fill="#1a1311"/>
          <path id="パス_2679" data-name="パス 2679" d="M255.465,80.11l-2.416-3.776h-.014V80.11h-.713V75.225h.779l2.376,3.716h.014V75.225h.713V80.11Z" transform="translate(-135.827 -40.494)" fill="#1a1311"/>
          <rect id="長方形_2711" data-name="長方形 2711" width="0.713" height="4.885" transform="translate(121.552 34.731)" fill="#1a1311"/>
          <path id="パス_2680" data-name="パス 2680" d="M270.534,80.11l-2.416-3.776H268.1V80.11h-.712V75.225h.779l2.376,3.716h.014V75.225h.712V80.11Z" transform="translate(-143.939 -40.494)" fill="#1a1311"/>
          <path id="パス_2681" data-name="パス 2681" d="M281.265,76.346a1.749,1.749,0,0,0-1.334-.667,1.883,1.883,0,0,0,.007,3.763,1.8,1.8,0,0,0,1.683-1.215h-2.277v-.654h3.089a2.6,2.6,0,1,1-.337-1.227Z" transform="translate(-149.332 -40.387)" fill="#1a1311"/>
          <path id="パス_2682" data-name="パス 2682" d="M133.035.006c3.064.006,4.735.006,6.387.006,1.689,0,3.272-.015,5.434-.006V1.212h-.992c-1.321,0-1.909.514-1.909,1.4,0,.368.111.661,1.4,3.525l3.892,8.7,4.846-9.8a5.907,5.907,0,0,0,.771-2.276c0-1.358-1.065-1.543-2.607-1.543V.006c1.771.006,2.937.006,4.075.006s2.342,0,4.18-.006l-.078,1.205a3.345,3.345,0,0,0-3.22,1.873l-7.415,13.73v5.359c0,2.056.66,2.937,3.047,2.974v1.127c-2.918-.027-4.144,0-5.36-.005-1.177,0-2.313.008-5.36.005V25.148c2.386-.037,3.047-.918,3.047-2.974V16.815L137.146,3.856c-1.028-2.24-1.872-2.57-4.111-2.644Z" transform="translate(-71.614 -0.001)" fill="#1a1311"/>
          <path id="パス_2683" data-name="パス 2683" d="M194.226,25.153c2.387-.037,3.047-.918,3.047-2.974V1.951h-3.23c-2.937,0-4.883.807-5.1,5.433h-1.358L187.8.011c3.991,0,7.856,0,11.784,0s7.73,0,11.784,0l.221,7.374h-1.359c-.22-4.626-2.166-5.433-5.1-5.433H201.9V22.179c0,2.056.661,2.937,3.047,2.974V26.28c-3-.027-4.221-.012-5.4-.012s-2.332,0-5.324.012Z" transform="translate(-100.977 -0.006)" fill="#1a1311"/>
          <path id="パス_2684" data-name="パス 2684" d="M241.731,25.147c2.387-.037,3.047-.918,3.047-2.974V4.185c0-2.056-.66-2.937-3.047-2.974V.005c3.043-.013,4.186.006,5.36.006s2.657.012,5.36-.006V1.211c-2.386.037-3.047.918-3.047,2.974V22.173c0,1.909,1.065,2.533,4.112,2.533,4.846,0,7.268-.624,8-5.176h1.248l-.588,6.744c-4.484-.012-10.722-.012-17.734-.012-1.1,0-2.018,0-2.714-.013Z" transform="translate(-130.125 0)" fill="#1a1311"/>
          <path id="パス_2685" data-name="パス 2685" d="M7.034,26.111.078,14.13a.577.577,0,0,1,0-.58l6.9-12.016a.581.581,0,0,1,.5-.291L21.329,1.21a.578.578,0,0,1,.5.289l6.956,11.98a.581.581,0,0,1,0,.58l-6.9,12.015a.579.579,0,0,1-.5.29L7.536,26.4h0a.581.581,0,0,1-.5-.289M7.812,2.4,1.249,13.837l6.62,11.4,13.186-.032,6.563-11.434L21,2.37Z" transform="translate(0 -0.651)" fill="#0092e5"/>
          <path id="パス_2686" data-name="パス 2686" d="M68.864,26.278,61.286,13.152,68.864.026H84.021L91.6,13.152,84.021,26.278Z" transform="translate(-32.991 -0.014)" fill="#0092e5"/>
          <path id="パス_2687" data-name="パス 2687" d="M36.757,54.342a.579.579,0,0,1-.5-.29L28.677,40.925a.578.578,0,0,1,0-.578L36.255,27.22a.578.578,0,0,1,.5-.289H43.8V28.09H37.092L29.849,40.635l7.243,12.547H51.579l7.41-12.835h0l1.174.3-7.748,13.4a.582.582,0,0,1-.5.29Z" transform="translate(-15.395 -14.497)" fill="#0092e5"/>
          <path id="パス_2688" data-name="パス 2688" d="M77.443,41.534,69.865,28.343H62.258l-.266.617,7.228,12.581Z" transform="translate(-33.37 -15.257)" fill="#001976"/>
          <path id="パス_2689" data-name="パス 2689" d="M68.827,28.316H61.4V27.157h7.766a.578.578,0,0,1,.5.289l7.767,13.429-1.327.009Zm-7.967,0h0Z" transform="translate(-32.761 -14.619)" fill="#fff"/>
        </g>
      </g>
    </g>
  </g>
</svg>
