<svg xmlns="http://www.w3.org/2000/svg" width="100" height="100" viewBox="0 0 100 100">
  <g id="グループ_2690" data-name="グループ 2690" transform="translate(-786 -963)">
    <circle id="楕円形_28" data-name="楕円形 28" cx="50" cy="50" r="50" transform="translate(786 963)" fill="#0092e6" opacity="0.1"/>
    <path id="パス_10953" data-name="パス 10953" d="M28.755,77.361a17.8,17.8,0,0,1-4.328-.566.638.638,0,0,1,.343-1.229c.054.016,5.42,1.474,8.244-.572a4.383,4.383,0,0,0,1.714-3.6c.174-3.826-1.571-5.274-3.418-6.807-1.616-1.342-3.287-2.729-3.508-5.626-.532-6.979-4.755-15.719-4.8-15.806a.638.638,0,0,1,1.146-.559c.178.366,4.371,9.043,4.923,16.268.18,2.358,1.51,3.463,3.05,4.742C34.037,65.19,36.2,66.99,36,71.449a5.645,5.645,0,0,1-2.241,4.579,8.568,8.568,0,0,1-5,1.333" transform="translate(801.394 968)" fill="#011976"/>
    <path id="パス_10954" data-name="パス 10954" d="M28.755,77.361a17.8,17.8,0,0,1-4.328-.566.638.638,0,0,1,.343-1.229c.054.016,5.42,1.474,8.244-.572a4.383,4.383,0,0,0,1.714-3.6c.174-3.826-1.571-5.274-3.418-6.807-1.616-1.342-3.287-2.729-3.508-5.626-.532-6.979-4.755-15.719-4.8-15.806a.638.638,0,0,1,1.146-.559c.178.366,4.371,9.043,4.923,16.268.18,2.358,1.51,3.463,3.05,4.742C34.037,65.19,36.2,66.99,36,71.449a5.645,5.645,0,0,1-2.241,4.579A8.568,8.568,0,0,1,28.755,77.361Z" transform="translate(801.394 968)" fill="none" stroke="#011976" stroke-miterlimit="10" stroke-width="0.5"/>
    <path id="パス_10955" data-name="パス 10955" d="M7.509,77.361a8.568,8.568,0,0,1-5-1.333A5.645,5.645,0,0,1,.263,71.449C.06,66.99,2.227,65.19,4.139,63.6,5.68,62.324,7.01,61.219,7.19,58.861c.552-7.225,4.745-15.9,4.923-16.268a.638.638,0,0,1,1.146.559c-.042.087-4.265,8.827-4.8,15.806-.221,2.9-1.892,4.284-3.508,5.626-1.847,1.533-3.592,2.981-3.418,6.807a4.383,4.383,0,0,0,1.714,3.6c2.824,2.046,8.191.588,8.244.572a.638.638,0,0,1,.343,1.229,17.8,17.8,0,0,1-4.328.566" transform="translate(801.394 968)" fill="#011976"/>
    <path id="パス_10956" data-name="パス 10956" d="M7.509,77.361a8.568,8.568,0,0,1-5-1.333A5.645,5.645,0,0,1,.263,71.449C.06,66.99,2.227,65.19,4.139,63.6,5.68,62.324,7.01,61.219,7.19,58.861c.552-7.225,4.745-15.9,4.923-16.268a.638.638,0,0,1,1.146.559c-.042.087-4.265,8.827-4.8,15.806-.221,2.9-1.892,4.284-3.508,5.626-1.847,1.533-3.592,2.981-3.418,6.807a4.383,4.383,0,0,0,1.714,3.6c2.824,2.046,8.191.588,8.244.572a.638.638,0,0,1,.343,1.229A17.8,17.8,0,0,1,7.509,77.361Z" transform="translate(801.394 968)" fill="none" stroke="#011976" stroke-miterlimit="10" stroke-width="0.5"/>
    <path id="パス_10957" data-name="パス 10957" d="M18.136,77.568A6.354,6.354,0,0,1,13.5,75.3c-.986-.937-1.837-1.745-3.26-1.745-1.575,0-2.17.382-2.384.61a.588.588,0,0,0-.186.414.627.627,0,0,1-.54.711.648.648,0,0,1-.724-.551,1.811,1.811,0,0,1,.462-1.382,4.332,4.332,0,0,1,3.372-1.077,5.818,5.818,0,0,1,4.138,2.1c1.037.986,2.017,1.917,3.755,1.917,1.806,0,2.919-.98,4.1-2.017,1.114-.981,2.266-2,3.963-2,4.1,0,4.145,2.271,4.145,2.367a.638.638,0,1,1-1.275,0c-.033-.361-.676-1.092-2.87-1.092-1.216,0-2.1.777-3.121,1.677-1.243,1.094-2.652,2.335-4.939,2.335" transform="translate(801.394 968)" fill="#011976"/>
    <path id="パス_10958" data-name="パス 10958" d="M18.136,77.568A6.354,6.354,0,0,1,13.5,75.3c-.986-.937-1.837-1.745-3.26-1.745-1.575,0-2.17.382-2.384.61a.588.588,0,0,0-.186.414.627.627,0,0,1-.54.711.648.648,0,0,1-.724-.551,1.811,1.811,0,0,1,.462-1.382,4.332,4.332,0,0,1,3.372-1.077,5.818,5.818,0,0,1,4.138,2.1c1.037.986,2.017,1.917,3.755,1.917,1.806,0,2.919-.98,4.1-2.017,1.114-.981,2.266-2,3.963-2,4.1,0,4.145,2.271,4.145,2.367a.638.638,0,1,1-1.275,0c-.033-.361-.676-1.092-2.87-1.092-1.216,0-2.1.777-3.121,1.677C21.832,76.327,20.423,77.568,18.136,77.568Z" transform="translate(801.394 968)" fill="none" stroke="#011976" stroke-miterlimit="10" stroke-width="0.5"/>
    <path id="パス_10959" data-name="パス 10959" d="M52.712,78.764c-2.348,0-7.808-.92-7.808-9.44a.638.638,0,1,1,1.275,0c0,7.1,4.093,8.165,6.533,8.165a6.165,6.165,0,0,0,5.322-3.714,34,34,0,0,1,7.577-10.454c3.72-3.371,5.147-9.865,3.25-14.784-1.548-4.013-5.027-6.223-9.8-6.223-10.879,0-12.573,6.3-12.589,6.361a.638.638,0,0,1-1.237-.309c.075-.3,1.961-7.327,13.826-7.327,5.334,0,9.235,2.5,10.985,7.039,2.074,5.377.5,12.487-3.583,16.187a32.74,32.74,0,0,0-7.286,10.067,7.425,7.425,0,0,1-6.469,4.432" transform="translate(801.394 972)" fill="#011976"/>
    <path id="パス_10960" data-name="パス 10960" d="M52.712,78.764c-2.348,0-7.808-.92-7.808-9.44a.638.638,0,1,1,1.275,0c0,7.1,4.093,8.165,6.533,8.165a6.165,6.165,0,0,0,5.322-3.714,34,34,0,0,1,7.577-10.454c3.72-3.371,5.147-9.865,3.25-14.784-1.548-4.013-5.027-6.223-9.8-6.223-10.879,0-12.573,6.3-12.589,6.361a.638.638,0,0,1-1.237-.309c.075-.3,1.961-7.327,13.826-7.327,5.334,0,9.235,2.5,10.985,7.039,2.074,5.377.5,12.487-3.583,16.187a32.74,32.74,0,0,0-7.286,10.067A7.425,7.425,0,0,1,52.712,78.764Z" transform="translate(801.394 972)" fill="none" stroke="#011976" stroke-miterlimit="10" stroke-width="0.5"/>
    <path id="パス_10961" data-name="パス 10961" d="M50.424,66.2a.634.634,0,0,1-.388-.132c-1.041-.8-2.73-2.928-1.673-5.234.14-.307.279-.6.413-.873.923-1.92,1.48-3.079.6-5.936a5.414,5.414,0,0,1,.972-4.764c1.6-2.209,4.537-3.508,8.043-3.562,7.068-.1,7.5,5.995,7.5,6.056a.637.637,0,1,1-1.273.071c-.013-.2-.362-4.949-6.206-4.853-3.1.049-5.664,1.156-7.031,3.037a4.217,4.217,0,0,0-.786,3.64,7.838,7.838,0,0,1-.67,6.863c-.13.271-.266.552-.4.852-.9,1.957,1.2,3.624,1.294,3.694a.638.638,0,0,1-.392,1.141" transform="translate(801.394 972)" fill="#011976"/>
    <path id="パス_10962" data-name="パス 10962" d="M50.424,66.2a.634.634,0,0,1-.388-.132c-1.041-.8-2.73-2.928-1.673-5.234.14-.307.279-.6.413-.873.923-1.92,1.48-3.079.6-5.936a5.414,5.414,0,0,1,.972-4.764c1.6-2.209,4.537-3.508,8.043-3.562,7.068-.1,7.5,5.995,7.5,6.056a.637.637,0,1,1-1.273.071c-.013-.2-.362-4.949-6.206-4.853-3.1.049-5.664,1.156-7.031,3.037a4.217,4.217,0,0,0-.786,3.64,7.838,7.838,0,0,1-.67,6.863c-.13.271-.266.552-.4.852-.9,1.957,1.2,3.624,1.294,3.694a.638.638,0,0,1-.392,1.141Z" transform="translate(801.394 972)" fill="none" stroke="#011976" stroke-miterlimit="10" stroke-width="0.5"/>
    <path id="パス_10963" data-name="パス 10963" d="M55.4,69.135a.638.638,0,0,1-.195-1.245c1.31-.42,1.324-1.353,1.038-3.541-.219-1.677-.467-3.577.894-4.9,1.15-1.12,1.669-2.33,1.356-3.157-.282-.744-1.27-1.194-2.783-1.267-3.738-.181-4.668,2.047-4.677,2.069a.637.637,0,0,1-1.183-.475c.05-.126,1.3-3.091,5.922-2.868,2.767.134,3.639,1.367,3.913,2.089.5,1.33-.117,3.02-1.658,4.522-.9.881-.718,2.312-.52,3.826.24,1.842.54,4.134-1.912,4.92a.63.63,0,0,1-.195.031" transform="translate(801.394 972)" fill="#011976"/>
    <path id="パス_10964" data-name="パス 10964" d="M55.4,69.135a.638.638,0,0,1-.195-1.245c1.31-.42,1.324-1.353,1.038-3.541-.219-1.677-.467-3.577.894-4.9,1.15-1.12,1.669-2.33,1.356-3.157-.282-.744-1.27-1.194-2.783-1.267-3.738-.181-4.668,2.047-4.677,2.069a.637.637,0,0,1-1.183-.475c.05-.126,1.3-3.091,5.922-2.868,2.767.134,3.639,1.367,3.913,2.089.5,1.33-.117,3.02-1.658,4.522-.9.881-.718,2.312-.52,3.826.24,1.842.54,4.134-1.912,4.92A.63.63,0,0,1,55.4,69.135Z" transform="translate(801.394 972)" fill="none" stroke="#011976" stroke-miterlimit="10" stroke-width="0.5"/>
    <path id="パス_10965" data-name="パス 10965" d="M35.606,31.79h0c-8.6,0-16.674-4.6-22.731-12.955a.636.636,0,0,1,0-.748C18.932,9.733,27,5.132,35.606,5.132s16.674,4.6,22.731,12.955a.636.636,0,0,1,0,.748C52.281,27.189,44.207,31.79,35.606,31.79M14.182,18.461c5.778,7.777,13.37,12.054,21.424,12.054S51.253,26.238,57.03,18.461C51.253,10.684,43.66,6.407,35.606,6.407S19.96,10.684,14.182,18.461" transform="translate(800.394 970)" fill="#011976"/>
    <path id="パス_10966" data-name="パス 10966" d="M35.606,31.79h0c-8.6,0-16.674-4.6-22.731-12.955a.636.636,0,0,1,0-.748C18.932,9.733,27,5.132,35.606,5.132s16.674,4.6,22.731,12.955a.636.636,0,0,1,0,.748C52.281,27.189,44.207,31.79,35.606,31.79ZM14.182,18.461c5.778,7.777,13.37,12.054,21.424,12.054S51.253,26.238,57.03,18.461C51.253,10.684,43.66,6.407,35.606,6.407S19.96,10.684,14.182,18.461Z" transform="translate(800.394 970)" fill="none" stroke="#011976" stroke-miterlimit="10" stroke-width="0.5"/>
    <path id="パス_10967" data-name="パス 10967" d="M35.606,28.633A10.172,10.172,0,1,1,45.778,18.46,10.184,10.184,0,0,1,35.606,28.633m0-19.07a8.9,8.9,0,1,0,8.9,8.9,8.907,8.907,0,0,0-8.9-8.9" transform="translate(800.394 970)" fill="#011976"/>
    <path id="パス_10968" data-name="パス 10968" d="M35.606,28.633A10.172,10.172,0,1,1,45.778,18.46,10.184,10.184,0,0,1,35.606,28.633Zm0-19.07a8.9,8.9,0,1,0,8.9,8.9A8.907,8.907,0,0,0,35.606,9.563Z" transform="translate(800.394 970)" fill="none" stroke="#011976" stroke-miterlimit="10" stroke-width="0.5"/>
    <path id="パス_10969" data-name="パス 10969" d="M35.606,21.369a2.908,2.908,0,1,1,2.908-2.908,2.912,2.912,0,0,1-2.908,2.908m0-4.541a1.633,1.633,0,1,0,1.633,1.633,1.635,1.635,0,0,0-1.633-1.633" transform="translate(800.394 970)" fill="#011976"/>
    <path id="パス_10970" data-name="パス 10970" d="M35.606,21.369a2.908,2.908,0,1,1,2.908-2.908A2.912,2.912,0,0,1,35.606,21.369Zm0-4.541a1.633,1.633,0,1,0,1.633,1.633A1.635,1.635,0,0,0,35.606,16.828Z" transform="translate(800.394 970)" fill="none" stroke="#011976" stroke-miterlimit="10" stroke-width="0.5"/>
    <path id="パス_10971" data-name="パス 10971" d="M19.254,12.543a.634.634,0,0,1-.5-.248l-2.776-3.6a.637.637,0,0,1,1.01-.778l2.775,3.6a.638.638,0,0,1-.5,1.027" transform="translate(800.394 970)" fill="#011976"/>
    <path id="パス_10972" data-name="パス 10972" d="M19.254,12.543a.634.634,0,0,1-.5-.248l-2.776-3.6a.637.637,0,0,1,1.01-.778l2.775,3.6a.638.638,0,0,1-.5,1.027Z" transform="translate(800.394 970)" fill="none" stroke="#011976" stroke-miterlimit="10" stroke-width="0.5"/>
    <path id="パス_10973" data-name="パス 10973" d="M27.118,7.92a.637.637,0,0,1-.592-.4L24.843,3.3a.638.638,0,0,1,1.185-.472L27.71,7.046a.639.639,0,0,1-.592.874" transform="translate(800.394 970)" fill="#011976"/>
    <path id="パス_10974" data-name="パス 10974" d="M27.118,7.92a.637.637,0,0,1-.592-.4L24.843,3.3a.638.638,0,0,1,1.185-.472L27.71,7.046a.639.639,0,0,1-.592.874Z" transform="translate(800.394 970)" fill="none" stroke="#011976" stroke-miterlimit="10" stroke-width="0.5"/>
    <path id="パス_10975" data-name="パス 10975" d="M44.3,7.92a.654.654,0,0,1-.236-.045.638.638,0,0,1-.356-.828L45.39,2.824a.638.638,0,1,1,1.185.472L44.892,7.518a.637.637,0,0,1-.592.4" transform="translate(800.394 970)" fill="#011976"/>
    <path id="パス_10976" data-name="パス 10976" d="M44.3,7.92a.654.654,0,0,1-.236-.045.638.638,0,0,1-.356-.828L45.39,2.824a.638.638,0,1,1,1.185.472L44.892,7.518A.637.637,0,0,1,44.3,7.92Z" transform="translate(800.394 970)" fill="none" stroke="#011976" stroke-miterlimit="10" stroke-width="0.5"/>
    <path id="パス_10977" data-name="パス 10977" d="M35.627,6.07a.638.638,0,0,1-.637-.632L34.947.893A.638.638,0,0,1,35.579.25h.006a.638.638,0,0,1,.637.632l.043,4.545a.638.638,0,0,1-.632.643Z" transform="translate(800.394 970)" fill="#011976"/>
    <path id="パス_10978" data-name="パス 10978" d="M35.627,6.07a.638.638,0,0,1-.637-.632L34.947.893A.638.638,0,0,1,35.579.25h.006a.638.638,0,0,1,.637.632l.043,4.545a.638.638,0,0,1-.632.643Z" transform="translate(800.394 970)" fill="none" stroke="#011976" stroke-miterlimit="10" stroke-width="0.5"/>
    <path id="パス_10979" data-name="パス 10979" d="M51.908,12.543a.63.63,0,0,1-.389-.133.637.637,0,0,1-.116-.894l2.776-3.6a.637.637,0,1,1,1.009.778l-2.775,3.6a.634.634,0,0,1-.5.248" transform="translate(800.394 970)" fill="#011976"/>
    <path id="パス_10980" data-name="パス 10980" d="M51.908,12.543a.63.63,0,0,1-.389-.133.637.637,0,0,1-.116-.894l2.776-3.6a.637.637,0,1,1,1.009.778l-2.775,3.6A.634.634,0,0,1,51.908,12.543Z" transform="translate(800.394 970)" fill="none" stroke="#011976" stroke-miterlimit="10" stroke-width="0.5"/>
    <path id="パス_10981" data-name="パス 10981" d="M54.684,29.88a.634.634,0,0,1-.5-.248l-2.776-3.6a.637.637,0,0,1,1.01-.778l2.775,3.6a.638.638,0,0,1-.5,1.027" transform="translate(800.394 970)" fill="#011976"/>
    <path id="パス_10982" data-name="パス 10982" d="M54.684,29.88a.634.634,0,0,1-.5-.248l-2.776-3.6a.637.637,0,0,1,1.01-.778l2.775,3.6a.638.638,0,0,1-.5,1.027Z" transform="translate(800.394 970)" fill="none" stroke="#011976" stroke-miterlimit="10" stroke-width="0.5"/>
    <path id="パス_10983" data-name="パス 10983" d="M45.726,35.126a.637.637,0,0,1-.592-.4L43.451,30.5a.638.638,0,0,1,1.185-.472l1.682,4.222a.639.639,0,0,1-.592.874" transform="translate(800.394 970)" fill="#011976"/>
    <path id="パス_10984" data-name="パス 10984" d="M45.726,35.126a.637.637,0,0,1-.592-.4L43.451,30.5a.638.638,0,0,1,1.185-.472l1.682,4.222a.639.639,0,0,1-.592.874Z" transform="translate(800.394 970)" fill="none" stroke="#011976" stroke-miterlimit="10" stroke-width="0.5"/>
    <path id="パス_10985" data-name="パス 10985" d="M25.179,35.126a.639.639,0,0,1-.592-.874l1.682-4.222a.638.638,0,0,1,1.185.472l-1.683,4.222a.637.637,0,0,1-.592.4" transform="translate(800.394 970)" fill="#011976"/>
    <path id="パス_10986" data-name="パス 10986" d="M25.179,35.126a.639.639,0,0,1-.592-.874l1.682-4.222a.638.638,0,0,1,1.185.472l-1.683,4.222A.637.637,0,0,1,25.179,35.126Z" transform="translate(800.394 970)" fill="none" stroke="#011976" stroke-miterlimit="10" stroke-width="0.5"/>
    <path id="パス_10987" data-name="パス 10987" d="M35.576,37.3a.638.638,0,0,1-.637-.632L34.9,32.122a.638.638,0,0,1,.632-.643.65.65,0,0,1,.643.632l.043,4.545a.638.638,0,0,1-.632.643Z" transform="translate(800.394 970)" fill="#011976"/>
    <path id="パス_10988" data-name="パス 10988" d="M35.576,37.3a.638.638,0,0,1-.637-.632L34.9,32.122a.638.638,0,0,1,.632-.643.65.65,0,0,1,.643.632l.043,4.545a.638.638,0,0,1-.632.643Z" transform="translate(800.394 970)" fill="none" stroke="#011976" stroke-miterlimit="10" stroke-width="0.5"/>
    <path id="パス_10989" data-name="パス 10989" d="M16.478,29.88a.638.638,0,0,1-.5-1.027l2.775-3.6a.637.637,0,0,1,1.01.778l-2.776,3.6a.634.634,0,0,1-.5.248" transform="translate(800.394 970)" fill="#011976"/>
    <path id="パス_10990" data-name="パス 10990" d="M16.478,29.88a.638.638,0,0,1-.5-1.027l2.775-3.6a.637.637,0,0,1,1.01.778l-2.776,3.6A.634.634,0,0,1,16.478,29.88Z" transform="translate(800.394 970)" fill="none" stroke="#011976" stroke-miterlimit="10" stroke-width="0.5"/>
  </g>
</svg>
