<svg xmlns="http://www.w3.org/2000/svg" xmlns:xlink="http://www.w3.org/1999/xlink" width="100" height="100" viewBox="0 0 100 100">
  <defs>
    <clipPath id="clip-path">
      <rect id="長方形_15273" data-name="長方形 15273" width="42.959" height="56.815" fill="#011976"/>
    </clipPath>
  </defs>
  <g id="グループ_2687" data-name="グループ 2687" transform="translate(-480 -1209)">
    <circle id="楕円形_31" data-name="楕円形 31" cx="50" cy="50" r="50" transform="translate(480 1209)" fill="#0092e6" opacity="0.1"/>
    <g id="グループ_2554" data-name="グループ 2554" transform="translate(509 1231)">
      <g id="グループ_2553" data-name="グループ 2553" transform="translate(0 0)" clip-path="url(#clip-path)">
        <path id="パス_10847" data-name="パス 10847" d="M8.985,58.871a.943.943,0,0,1-.113-.007,1,1,0,0,1-.806-.6L5.973,53.4.924,53.015a1,1,0,0,1-.73-1.589l30.784-42a1,1,0,1,1,1.614,1.183L2.872,51.158l3.857.295a1,1,0,0,1,.843.6l1.64,3.813L35.3,20.282A8.9,8.9,0,0,0,33.383,7.843a1,1,0,0,1,1.183-1.614,10.912,10.912,0,0,1,2.347,15.235l-27.121,37a1,1,0,0,1-.807.409" transform="translate(0 -2.057)" fill="#011976"/>
        <path id="パス_10848" data-name="パス 10848" d="M24.4,23.267a1,1,0,0,1-.8-.4L15.9,12.537a1,1,0,1,1,1.6-1.2L25.2,21.669a1,1,0,0,1-.8,1.6" transform="translate(-5.352 -3.727)" fill="#011976"/>
        <path id="パス_10849" data-name="パス 10849" d="M15.146,30.242a1,1,0,0,1-.8-.4L8.087,21.472A10.9,10.9,0,0,1,10.428,6.229a1,1,0,0,1,1.183,1.614A8.9,8.9,0,0,0,9.694,20.281l6.251,8.362a1,1,0,0,1-.8,1.6" transform="translate(-2.034 -2.057)" fill="#011976"/>
        <path id="パス_10850" data-name="パス 10850" d="M45.852,73.588a1,1,0,0,1-.81-.414l-10-13.815a1,1,0,1,1,1.622-1.173l8.867,12.257,1.322-3.819a1,1,0,0,1,.91-.672l4.158-.15L41.054,50.809a1,1,0,0,1,1.62-1.175L54.647,66.147a1,1,0,0,1-.774,1.587l-5.349.192L46.8,72.915a1,1,0,0,1-.946.673" transform="translate(-11.878 -16.773)" fill="#011976"/>
        <path id="パス_10851" data-name="パス 10851" d="M38.1,5.98a.992.992,0,0,1-.5-.133L35.461,4.617a19.862,19.862,0,0,0-19.71,0L13.609,5.847a1,1,0,0,1-1-1.735l2.142-1.23a21.87,21.87,0,0,1,21.7,0L38.6,4.111a1,1,0,0,1-.5,1.868" transform="translate(-4.127 0)" fill="#011976"/>
        <path id="パス_10852" data-name="パス 10852" d="M35.144,18.313a.992.992,0,0,1-.5-.133,11.844,11.844,0,0,0-11.753,0,1,1,0,0,1-1-1.735,13.85,13.85,0,0,1,13.745,0,1,1,0,0,1-.5,1.868" transform="translate(-7.291 -4.982)" fill="#011976"/>
      </g>
    </g>
  </g>
</svg>
