<svg xmlns="http://www.w3.org/2000/svg" xmlns:xlink="http://www.w3.org/1999/xlink" width="100" height="100" viewBox="0 0 100 100">
  <defs>
    <clipPath id="clip-path">
      <rect id="長方形_15565" data-name="長方形 15565" width="54.192" height="49.07" fill="#011976"/>
    </clipPath>
  </defs>
  <g id="グループ_2693" data-name="グループ 2693" transform="translate(-1090 -1209)">
    <circle id="楕円形_45" data-name="楕円形 45" cx="50" cy="50" r="50" transform="translate(1090 1209)" fill="#0092e6" opacity="0.1"/>
    <g id="グループ_2692" data-name="グループ 2692" transform="translate(1112.439 1234.209)">
      <g id="グループ_2691" data-name="グループ 2691" transform="translate(0 0)" clip-path="url(#clip-path)">
        <path id="パス_10991" data-name="パス 10991" d="M78.35,49.884H69.276a2.846,2.846,0,0,1-2.842-2.843V4.845A2.845,2.845,0,0,1,69.276,2H78.35a2.845,2.845,0,0,1,2.842,2.842v42.2a2.846,2.846,0,0,1-2.842,2.843M69.276,3.8a1.041,1.041,0,0,0-1.041,1.041v42.2a1.042,1.042,0,0,0,1.041,1.041H78.35a1.042,1.042,0,0,0,1.041-1.041V4.845A1.042,1.042,0,0,0,78.35,3.8Z" transform="translate(-27 -0.814)" fill="#011976"/>
        <path id="パス_10992" data-name="パス 10992" d="M79.074,70.728H73.838a.9.9,0,1,1,0-1.8h5.235a.9.9,0,1,1,0,1.8" transform="translate(-29.642 -28.012)" fill="#011976"/>
        <path id="パス_10993" data-name="パス 10993" d="M56.759,49.884H47.686a2.846,2.846,0,0,1-2.843-2.843V4.845A2.846,2.846,0,0,1,47.686,2h9.074A2.845,2.845,0,0,1,59.6,4.845v42.2a2.845,2.845,0,0,1-2.842,2.843M47.686,3.8a1.041,1.041,0,0,0-1.041,1.041v42.2a1.042,1.042,0,0,0,1.041,1.041h9.074A1.042,1.042,0,0,0,57.8,47.042V4.845A1.042,1.042,0,0,0,56.759,3.8Z" transform="translate(-18.225 -0.814)" fill="#011976"/>
        <path id="パス_10994" data-name="パス 10994" d="M57.484,70.728H52.248a.9.9,0,1,1,0-1.8h5.235a.9.9,0,1,1,0,1.8" transform="translate(-20.868 -28.012)" fill="#011976"/>
        <path id="パス_10995" data-name="パス 10995" d="M11.428,48.553a2.831,2.831,0,0,1-.915-.153L1.925,45.471A2.846,2.846,0,0,1,.153,41.862L13.777,1.926A2.842,2.842,0,0,1,17.385.154l8.587,2.929a2.842,2.842,0,0,1,1.772,3.608L14.12,46.628a2.847,2.847,0,0,1-2.693,1.925M2.507,43.765l8.587,2.93a1.044,1.044,0,0,0,1.321-.649L26.04,6.109a1.041,1.041,0,0,0-.649-1.321L16.8,1.859a1.04,1.04,0,0,0-1.321.648L1.858,42.444A1.042,1.042,0,0,0,2.507,43.765Z" transform="translate(0 0)" fill="#011976"/>
        <path id="パス_10996" data-name="パス 10996" d="M14.587,68.053A.888.888,0,0,1,14.3,68L9.341,66.314a.9.9,0,0,1,.582-1.7L14.878,66.3a.9.9,0,0,1-.291,1.753" transform="translate(-3.548 -26.238)" fill="#011976"/>
      </g>
    </g>
  </g>
</svg>
