<svg xmlns="http://www.w3.org/2000/svg" xmlns:xlink="http://www.w3.org/1999/xlink" width="100" height="100" viewBox="0 0 100 100">
  <defs>
    <clipPath id="clip-path">
      <rect id="長方形_15262" data-name="長方形 15262" width="60.181" height="60.636" fill="#011976"/>
    </clipPath>
  </defs>
  <g id="グループ_2681" data-name="グループ 2681" transform="translate(-786 -717)">
    <circle id="楕円形_24" data-name="楕円形 24" cx="50" cy="50" r="50" transform="translate(786 717)" fill="#0092e6" opacity="0.1"/>
    <g id="グループ_2532" data-name="グループ 2532" transform="translate(804.823 735.682)">
      <g id="グループ_2531" data-name="グループ 2531" transform="translate(0 0)" clip-path="url(#clip-path)">
        <path id="パス_10758" data-name="パス 10758" d="M50.329,68.888h-.02A1.065,1.065,0,0,1,49.264,67.8c.157-8.352,2.453-13.028,4.674-17.549,2.545-5.181,4.952-10.083,3.838-20.473H8.312C7.152,33.5,3.756,40.436,2.167,42.2a.138.138,0,0,0-.036.069c.089.237.467.9,1.974,1.6,3.082,1.424,2.813,5.623,2.587,7.217A6.664,6.664,0,0,1,8.75,57.108c-.4,1.8-.747,3.832.321,5.049.961,1.094,3.118,1.522,6.237,1.237a52.521,52.521,0,0,0,14.378-3.475,1.065,1.065,0,0,1,.812,1.969A53.664,53.664,0,0,1,15.48,65.516c-3.911.359-6.538-.28-8.009-1.954-1.873-2.132-1.174-5.246-.8-6.92C7.213,54.229,4.9,52.319,4.877,52.3A1.071,1.071,0,0,1,4.5,51.245c.009-.042.88-4.445-1.293-5.449A5.448,5.448,0,0,1,.126,42.978a2.184,2.184,0,0,1,.46-2.21c1.346-1.489,5.091-9.1,5.888-12.308a1.065,1.065,0,0,1,1.033-.808H58.724a1.066,1.066,0,0,1,1.057.934c1.442,11.667-1.29,17.228-3.932,22.607-2.117,4.312-4.308,8.771-4.456,16.65a1.065,1.065,0,0,1-1.064,1.045" transform="translate(0 -8.251)" fill="#011976"/>
        <path id="パス_10759" data-name="パス 10759" d="M30.682,83.807a1.065,1.065,0,0,1-1.057-.942l-.467-4.03a1.065,1.065,0,0,1,2.115-.245l.467,4.03a1.064,1.064,0,0,1-.935,1.18,1.049,1.049,0,0,1-.123.007" transform="translate(-8.699 -23.171)" fill="#011976"/>
        <path id="パス_10760" data-name="パス 10760" d="M13.638,26.26a1.065,1.065,0,0,1-1.031-.8c-1.474-5.828,2.355-8.419,2.519-8.526A1.065,1.065,0,0,1,16.3,18.706c-.127.088-2.715,1.931-1.628,6.228a1.067,1.067,0,0,1-1.034,1.326" transform="translate(-3.661 -5)" fill="#011976"/>
        <path id="パス_10761" data-name="パス 10761" d="M17.223,18.148a1.059,1.059,0,0,1-.9-.493c-.823-1.3-1.792-4.317.427-6.466,2.622-2.54,6.065-.839,6.21-.765a1.065,1.065,0,0,1-.963,1.9c-.086-.042-2.241-1.08-3.766.4s-.166,3.705-.107,3.8a1.066,1.066,0,0,1-.9,1.63" transform="translate(-4.593 -2.924)" fill="#011976"/>
        <path id="パス_10762" data-name="パス 10762" d="M23.217,9.325a1.065,1.065,0,0,1-.994-1.443c.059-.153,1.46-3.747,4.508-4.831a5.714,5.714,0,0,1,4.419.309,8.337,8.337,0,0,1,4.817-2.2,7.38,7.38,0,0,1,5.48,2.067,1.064,1.064,0,0,1-1.4,1.6,5.383,5.383,0,0,0-3.911-1.544,6.578,6.578,0,0,0-3.979,2.07,1.07,1.07,0,0,1-1.338.227,3.92,3.92,0,0,0-3.364-.53c-2.118.748-3.229,3.561-3.241,3.589a1.067,1.067,0,0,1-.994.681" transform="translate(-6.611 -0.342)" fill="#011976"/>
        <path id="パス_10763" data-name="パス 10763" d="M76.655,25.557a1.065,1.065,0,0,1-.869-1.679,4.1,4.1,0,0,0,.571-2.832,4.179,4.179,0,0,0-3.824-3.968,1.065,1.065,0,0,1,.152-2.124,6.325,6.325,0,0,1,5.792,5.882,6.151,6.151,0,0,1-.951,4.271,1.063,1.063,0,0,1-.871.451" transform="translate(-21.352 -4.461)" fill="#011976"/>
        <path id="パス_10764" data-name="パス 10764" d="M71.564,14.223h-.057A1.065,1.065,0,0,1,70.5,13.1a5.162,5.162,0,0,0-1.28-3.537A4.548,4.548,0,0,0,65.531,8.6a1.065,1.065,0,0,1-.192-2.121A6.542,6.542,0,0,1,70.706,8.04a7.266,7.266,0,0,1,1.92,5.174,1.064,1.064,0,0,1-1.062,1.009" transform="translate(-19.209 -1.92)" fill="#011976"/>
        <path id="パス_10765" data-name="パス 10765" d="M60.361,7.88A1.064,1.064,0,0,1,59.3,6.869c-.009-.127-.286-3.364-4.713-4.454s-6.124,1.346-6.194,1.45a1.07,1.07,0,0,1-1.47.308A1.058,1.058,0,0,1,46.6,2.718c.1-.158,2.507-3.845,8.5-2.37,6.011,1.479,6.319,6.213,6.33,6.413a1.065,1.065,0,0,1-1.01,1.118h-.055" transform="translate(-13.857 0)" fill="#011976"/>
        <path id="パス_10766" data-name="パス 10766" d="M35.1,26.474c-.025,0-.051,0-.076,0a5.96,5.96,0,0,1-1.214-.209c-.419-.111-4.106-1.185-4.368-4.742a4.587,4.587,0,0,1,3.006-4.842,1.065,1.065,0,0,1,.652,2.028,2.448,2.448,0,0,0-1.535,2.658c.158,2.141,2.684,2.813,2.792,2.84l.063.018a3.855,3.855,0,0,0,.754.125,1.065,1.065,0,0,1-.074,2.127" transform="translate(-8.781 -4.962)" fill="#011976"/>
        <path id="パス_10767" data-name="パス 10767" d="M26.624,22.857h0a4.294,4.294,0,0,1-3.088-1.433,1.064,1.064,0,1,1,1.515-1.5,1.948,1.948,0,0,0,2.982.2,1.069,1.069,0,0,1,1.5.01,1.059,1.059,0,0,1,.006,1.494,4.363,4.363,0,0,1-2.917,1.221" transform="translate(-6.931 -5.852)" fill="#011976"/>
        <path id="パス_10768" data-name="パス 10768" d="M67.388,27.261a1.065,1.065,0,0,1-.993-1.447,2.34,2.34,0,0,0,.137-.728,2.494,2.494,0,0,0-1.663-2.348,1.065,1.065,0,0,1,.685-2.016,4.592,4.592,0,0,1,3.105,4.462,4.45,4.45,0,0,1-.276,1.393,1.064,1.064,0,0,1-.994.683" transform="translate(-19.142 -6.167)" fill="#011976"/>
        <path id="パス_10769" data-name="パス 10769" d="M49.716,15.363a5.5,5.5,0,0,1-3.939-1.33,5.378,5.378,0,0,1-1.3-4.647,1.065,1.065,0,0,1,2.088.42,3.263,3.263,0,0,0,.689,2.692c.928.873,2.822.976,5.475.3a1.065,1.065,0,1,1,.528,2.063,14.422,14.422,0,0,1-3.541.507" transform="translate(-13.246 -2.546)" fill="#011976"/>
        <path id="パス_10770" data-name="パス 10770" d="M41.37,14.076a4.641,4.641,0,0,1-3.521-1.62,1.065,1.065,0,1,1,1.576-1.432,2.669,2.669,0,0,0,3.388.546,1.065,1.065,0,1,1,1.112,1.816,5.083,5.083,0,0,1-2.554.69" transform="translate(-11.212 -3.185)" fill="#011976"/>
      </g>
    </g>
  </g>
</svg>
