<svg xmlns="http://www.w3.org/2000/svg" xmlns:xlink="http://www.w3.org/1999/xlink" width="100" height="100" viewBox="0 0 100 100">
  <defs>
    <clipPath id="clip-path">
      <rect id="長方形_15272" data-name="長方形 15272" width="62.032" height="59.294" fill="#011976"/>
    </clipPath>
  </defs>
  <g id="グループ_2684" data-name="グループ 2684" transform="translate(-480 -963)">
    <circle id="楕円形_27" data-name="楕円形 27" cx="50" cy="50" r="50" transform="translate(480 963)" fill="#0092e6" opacity="0.1"/>
    <g id="グループ_2552" data-name="グループ 2552" transform="translate(499 983)">
      <g id="グループ_2551" data-name="グループ 2551" transform="translate(0 0)" clip-path="url(#clip-path)">
        <path id="パス_10839" data-name="パス 10839" d="M8.108,62.772a6.517,6.517,0,0,1-4.287-1.479C-1.225,57.116-.358,45.09,1.26,35.737,4.328,17.984,14.737,11.854,15.521,11.416a4.553,4.553,0,0,1,4.774-.454c4.2,2.206,6.67,12.436,7.336,30.4.541,14.6-8.058,17.819-14.968,20.409l-.371.139a12.013,12.013,0,0,1-4.184.858m8.417-49.593a22,22,0,0,0-5.516,4.988C8.323,21.424,4.8,27.176,3.259,36.082,1.134,48.376,1.81,56.995,5.115,59.73c1.517,1.255,3.63,1.348,6.464.285l.372-.14c6.628-2.483,14.14-5.3,13.652-18.433-.61-16.463-2.888-26.918-6.25-28.684-.509-.267-1.349-.517-2.769.387l-.057.033m-.487-.89h0Z" transform="translate(0 -3.477)" fill="#011976"/>
        <path id="パス_10840" data-name="パス 10840" d="M70.977,62.772a12.013,12.013,0,0,1-4.184-.858l-.372-.139c-6.909-2.59-15.509-5.812-14.967-20.409.666-17.968,3.134-28.2,7.336-30.4a4.554,4.554,0,0,1,4.775.454c.784.439,11.192,6.569,14.261,24.321,1.616,9.354,2.485,21.38-2.561,25.556a6.518,6.518,0,0,1-4.287,1.479M60.7,12.511a2.012,2.012,0,0,0-.963.247c-3.362,1.766-5.641,12.221-6.251,28.684-.487,13.134,7.025,15.95,13.652,18.433l.372.14c2.833,1.064,4.947.971,6.463-.285,3.3-2.735,3.981-11.354,1.856-23.648-1.539-8.906-5.064-14.658-7.75-17.916a21.97,21.97,0,0,0-5.517-4.988l-.057-.033a3.4,3.4,0,0,0-1.807-.634" transform="translate(-17.052 -3.477)" fill="#011976"/>
        <path id="パス_10841" data-name="パス 10841" d="M36.015,18.123A1.015,1.015,0,0,1,35.3,16.39l.233-.232a13.6,13.6,0,0,0,4.008-9.676V1.014a1.014,1.014,0,0,1,2.029,0V6.482a15.612,15.612,0,0,1-4.6,11.112l-.233.233a1.013,1.013,0,0,1-.717.3" transform="translate(-11.605 0)" fill="#011976"/>
        <path id="パス_10842" data-name="パス 10842" d="M53.61,18.123a1.01,1.01,0,0,1-.717-.3l-.232-.232a15.608,15.608,0,0,1-4.6-11.112V1.014a1.015,1.015,0,0,1,2.029,0V6.482A13.6,13.6,0,0,0,54.1,16.159l.232.232a1.015,1.015,0,0,1-.717,1.732" transform="translate(-15.934 0)" fill="#011976"/>
        <path id="パス_10843" data-name="パス 10843" d="M51.712,29.97a1.012,1.012,0,0,1-.465-.114c-3.678-1.9-6.1-6.22-6.2-6.4a1.014,1.014,0,0,1,1.775-.983c.022.039,2.229,3.967,5.354,5.584a1.015,1.015,0,0,1-.467,1.916" transform="translate(-14.894 -7.277)" fill="#011976"/>
        <path id="パス_10844" data-name="パス 10844" d="M37.3,29.97a1.015,1.015,0,0,1-.467-1.916c3.125-1.616,5.332-5.544,5.354-5.584a1.014,1.014,0,0,1,1.775.983c-.1.182-2.519,4.5-6.2,6.4a1.012,1.012,0,0,1-.465.114" transform="translate(-12.03 -7.277)" fill="#011976"/>
        <path id="パス_10845" data-name="パス 10845" d="M80.136,47.4a1.015,1.015,0,0,1-1.013-.981,36.093,36.093,0,0,0-7.1-20.664,1.014,1.014,0,0,1,1.542-1.318c.291.341,7.144,8.5,7.588,21.916A1.014,1.014,0,0,1,80.17,47.4h-.034" transform="translate(-23.798 -7.983)" fill="#011976"/>
        <path id="パス_10846" data-name="パス 10846" d="M8.017,47.4H7.983A1.014,1.014,0,0,1,7,46.348c.443-13.418,7.3-21.575,7.588-21.916a1.014,1.014,0,0,1,1.541,1.319,36.106,36.106,0,0,0-7.1,20.664,1.015,1.015,0,0,1-1.013.981" transform="translate(-2.322 -7.983)" fill="#011976"/>
      </g>
    </g>
  </g>
</svg>
