<svg xmlns="http://www.w3.org/2000/svg" xmlns:xlink="http://www.w3.org/1999/xlink" width="100" height="100" viewBox="0 0 100 100">
  <defs>
    <clipPath id="clip-path">
      <rect id="長方形_15269" data-name="長方形 15269" width="54.775" height="64.147" fill="#011976"/>
    </clipPath>
  </defs>
  <g id="グループ_2672" data-name="グループ 2672" transform="translate(-173 -717)">
    <circle id="楕円形_22" data-name="楕円形 22" cx="50" cy="50" r="50" transform="translate(173 717)" fill="#0092e6" opacity="0.1"/>
    <g id="グループ_2546" data-name="グループ 2546" transform="translate(196 735)">
      <g id="グループ_2545" data-name="グループ 2545" transform="translate(0 0)" clip-path="url(#clip-path)">
        <path id="パス_10832" data-name="パス 10832" d="M8.718,63.374a.978.978,0,0,1-.91-.618C5.1,55.923,7.749,52.407,9.569,50.919a3.662,3.662,0,0,1,4.538-.013c3.85,3.1,14.3,9.576,28.141,2.649,9.959-4.984,14.59-13.925,12.387-23.915C52.769,21.177,46.52,14.651,40.1,14.459c-5.622-.158-7.525,1.977-9.365,4.051-1.638,1.847-3.332,3.757-7.179,3.757a4.339,4.339,0,0,1-3.22-1.452C16,16.27,16.641,1.557,16.67.932a.978.978,0,1,1,1.954.093c-.189,4.02,0,15.169,3.126,18.44a2.425,2.425,0,0,0,1.8.846c2.967,0,4.18-1.367,5.715-3.1,1.938-2.186,4.358-4.914,10.887-4.709,7.29.218,14.335,7.4,16.388,16.714C58.955,40.141,53.937,49.893,43.124,55.3c-14.858,7.435-26.1.466-30.245-2.876a1.693,1.693,0,0,0-2.072,0c-1.718,1.4-3.317,4.211-1.181,9.6a.979.979,0,0,1-.909,1.339" transform="translate(-2.363 0)" fill="#011976"/>
        <path id="パス_10833" data-name="パス 10833" d="M36.543,35.066a6.824,6.824,0,0,1-5.8-3.193A4.282,4.282,0,0,0,27.9,30.084a17.422,17.422,0,0,1-6.875-3.83C12.794,19.228,14.1,1.646,14.16.9a.978.978,0,0,1,1.951.156c-.014.173-1.286,17.332,6.184,23.71a15.514,15.514,0,0,0,6.191,3.452,6.126,6.126,0,0,1,3.878,2.565,4.877,4.877,0,0,0,5.6,2.109.978.978,0,0,1,.657,1.843,6.284,6.284,0,0,1-2.074.331" transform="translate(-4.993 0)" fill="#011976"/>
        <path id="パス_10834" data-name="パス 10834" d="M2.356,83.036a.978.978,0,0,1-.879-.549c-.049-.1-4.842-10.2,3.112-17.7,3.521-3.322,7.4-2.05,9.97-1.21.966.317,2.168.711,2.526.5a1.167,1.167,0,0,0,.3-.724c.755-4.334,5.218-5.8,7.2-6.235A4.8,4.8,0,0,1,26.1,53.366a.978.978,0,0,1,1.237,1.515,3.121,3.121,0,0,0-.74,2.881.979.979,0,0,1-.849,1.127c-.056.007-5.732.753-6.437,4.8a2.788,2.788,0,0,1-1.222,2.065c-1.122.674-2.522.215-4.142-.315-2.5-.82-5.343-1.75-8.018.774-6.893,6.5-2.87,15.06-2.7,15.421a.979.979,0,0,1-.881,1.405" transform="translate(0 -18.889)" fill="#011976"/>
      </g>
    </g>
  </g>
</svg>
