<svg xmlns="http://www.w3.org/2000/svg" xmlns:xlink="http://www.w3.org/1999/xlink" width="100" height="100" viewBox="0 0 100 100">
  <defs>
    <clipPath id="clip-path">
      <rect id="長方形_15264" data-name="長方形 15264" width="66.138" height="51.796" fill="#011976"/>
    </clipPath>
  </defs>
  <g id="グループ_2682" data-name="グループ 2682" transform="translate(-1093 -717)">
    <circle id="楕円形_25" data-name="楕円形 25" cx="50" cy="50" r="50" transform="translate(1093 717)" fill="#0092e6" opacity="0.1"/>
    <g id="グループ_2536" data-name="グループ 2536" transform="translate(1110 744)">
      <g id="グループ_2535" data-name="グループ 2535" clip-path="url(#clip-path)">
        <path id="パス_10778" data-name="パス 10778" d="M18.308,46.759A17.522,17.522,0,0,1,6.875,42.668C2.313,38.711,0,32.222,0,23.382,0,5.033,9.911.923,15.82.107a10.473,10.473,0,0,1,8.81,2.778c2.821,2.805,2.532,6.211,1.8,9.473-1.211,5.393-6.737,7.152-6.971,7.224a.935.935,0,0,1-.551-1.787c.081-.025,4.732-1.542,5.7-5.847.731-3.256.77-5.686-1.293-7.738a8.6,8.6,0,0,0-7.237-2.251C3.715,3.667,1.87,16.114,1.87,23.382c0,8.262,2.09,14.27,6.212,17.858a16.153,16.153,0,0,0,11.725,3.568l.064-.007a6.715,6.715,0,0,0,4.191-2.1,6.168,6.168,0,0,0,1.13-4.777c-.721-6.493-7.4-6.345-7.684-6.333a.935.935,0,0,1-.07-1.868c2.993-.121,8.879,1.4,9.612,7.994a7.942,7.942,0,0,1-1.561,6.193,8.516,8.516,0,0,1-5.449,2.757,13.7,13.7,0,0,1-1.731.1" transform="translate(0 0)" fill="#011976"/>
        <path id="パス_10779" data-name="パス 10779" d="M27.79,43.725a.935.935,0,0,1-.392-1.784c.267-.124,6.443-3.071,4.1-9.066a.935.935,0,0,1,1.742-.681c2.393,6.121-2.263,10.163-5.06,11.445a.932.932,0,0,1-.389.086" transform="translate(-10.315 -12.138)" fill="#011976"/>
        <path id="パス_10780" data-name="パス 10780" d="M44.618,67.162a.935.935,0,0,1-.935-.935V51.41a10.1,10.1,0,0,0-6.891-9.583.935.935,0,0,1,.595-1.773A11.968,11.968,0,0,1,45.553,51.41V66.227a.935.935,0,0,1-.935.935" transform="translate(-13.887 -15.367)" fill="#011976"/>
        <path id="パス_10781" data-name="パス 10781" d="M72.164,46.759a13.688,13.688,0,0,1-1.731-.1,8.516,8.516,0,0,1-5.449-2.757,7.942,7.942,0,0,1-1.561-6.193c.732-6.589,6.607-8.12,9.612-7.994a.935.935,0,1,1-.072,1.868c-.281-.01-6.96-.161-7.681,6.333A6.168,6.168,0,0,0,66.41,42.7,6.719,6.719,0,0,0,70.6,44.8l.063.007A16.15,16.15,0,0,0,82.39,41.239c4.122-3.588,6.212-9.6,6.212-17.858,0-7.268-1.845-19.715-14.206-21.423A8.6,8.6,0,0,0,67.16,4.21c-2.063,2.052-2.024,4.482-1.293,7.738.97,4.32,5.651,5.832,5.7,5.847a.935.935,0,0,1-.552,1.786c-.235-.072-5.76-1.83-6.971-7.224-.732-3.262-1.021-6.668,1.8-9.473A10.466,10.466,0,0,1,74.652.107c5.908.817,15.82,4.926,15.82,23.275,0,8.84-2.313,15.329-6.875,19.286a17.521,17.521,0,0,1-11.433,4.091" transform="translate(-24.333 0)" fill="#011976"/>
        <path id="パス_10782" data-name="パス 10782" d="M75.2,43.725a.931.931,0,0,1-.389-.086c-2.8-1.282-7.453-5.324-5.06-11.445a.935.935,0,1,1,1.741.681c-2.344,6,3.836,8.943,4.1,9.066a.935.935,0,0,1-.392,1.784" transform="translate(-26.539 -12.138)" fill="#011976"/>
        <path id="パス_10783" data-name="パス 10783" d="M56.908,67.162a.936.936,0,0,1-.936-.935V51.41a11.969,11.969,0,0,1,8.166-11.356.935.935,0,1,1,.6,1.773,10.1,10.1,0,0,0-6.891,9.583V66.227a.935.935,0,0,1-.935.935" transform="translate(-21.5 -15.367)" fill="#011976"/>
      </g>
    </g>
  </g>
</svg>
