<svg xmlns="http://www.w3.org/2000/svg" xmlns:xlink="http://www.w3.org/1999/xlink" width="100" height="100" viewBox="0 0 100 100">
  <defs>
    <clipPath id="clip-path">
      <rect id="長方形_15268" data-name="長方形 15268" width="70.885" height="58.151" fill="#011976"/>
    </clipPath>
  </defs>
  <g id="グループ_2680" data-name="グループ 2680" transform="translate(-480 -717)">
    <circle id="楕円形_23" data-name="楕円形 23" cx="50" cy="50" r="50" transform="translate(480 717)" fill="#0092e6" opacity="0.1"/>
    <g id="グループ_2544" data-name="グループ 2544" transform="translate(495.558 737.644)">
      <g id="グループ_2543" data-name="グループ 2543" transform="translate(0 0)" clip-path="url(#clip-path)">
        <path id="パス_10803" data-name="パス 10803" d="M56.877,13.172a1,1,0,0,1-.914-1.419A15.246,15.246,0,0,0,57,8.779a1,1,0,0,1,1.971.383,16.829,16.829,0,0,1-1.173,3.421,1,1,0,0,1-.915.589" transform="translate(-18.914 -2.698)" fill="#011976"/>
        <path id="パス_10804" data-name="パス 10804" d="M61.65,16.171a1,1,0,0,1-.828-1.571A19.5,19.5,0,0,1,63.1,11.845a1,1,0,1,1,1.422,1.418,17.438,17.438,0,0,0-2.043,2.471,1,1,0,0,1-.83.437" transform="translate(-20.529 -3.91)" fill="#011976"/>
        <path id="パス_10805" data-name="パス 10805" d="M62.8,10.816c-.137,0-.277-.006-.42-.018a1,1,0,1,1,.167-2c.646.055,1.045-.106,1.142-.278a1.072,1.072,0,0,0-.21-.9,4.7,4.7,0,0,0-1.7-1.545c-1.549-.871-2.877-.728-3.084-.361-.1.172-.026.6.359,1.124A1,1,0,0,1,57.43,8.02a3.016,3.016,0,0,1-.488-3.292c.895-1.592,3.4-1.767,5.818-.405A6.644,6.644,0,0,1,65.2,6.582,2.878,2.878,0,0,1,65.438,9.5a2.858,2.858,0,0,1-2.64,1.313" transform="translate(-19.174 -1.154)" fill="#011976"/>
        <path id="パス_10806" data-name="パス 10806" d="M12.1,30.411a1,1,0,0,1-.411-.089,15.188,15.188,0,0,0-2.912-1,1,1,0,0,1,.384-1.971,16.752,16.752,0,0,1,3.351,1.143,1,1,0,0,1-.412,1.92" transform="translate(-2.697 -9.252)" fill="#011976"/>
        <path id="パス_10807" data-name="パス 10807" d="M15.119,25.093a1,1,0,0,1-.569-.177,19.525,19.525,0,0,1-2.705-2.245,1,1,0,1,1,1.418-1.422,17.454,17.454,0,0,0,2.427,2.013,1,1,0,0,1-.57,1.831" transform="translate(-3.91 -7.094)" fill="#011976"/>
        <path id="パス_10808" data-name="パス 10808" d="M5.9,26.608a2.351,2.351,0,0,1-1.166-.3,2.878,2.878,0,0,1-1.313-2.62,6.643,6.643,0,0,1,.908-3.2c1.361-2.422,3.589-3.574,5.18-2.678a3.012,3.012,0,0,1,1.3,3.06,1,1,0,1,1-2-.167c.054-.647-.106-1.046-.278-1.142-.367-.208-1.576.362-2.446,1.912a4.681,4.681,0,0,0-.65,2.2,1.066,1.066,0,0,0,.288.88c.173.1.6.026,1.124-.359a1,1,0,1,1,1.184,1.621,3.661,3.661,0,0,1-2.125.788" transform="translate(-1.157 -5.927)" fill="#011976"/>
        <path id="パス_10809" data-name="パス 10809" d="M28.334,77.308a1.027,1.027,0,0,1-.194-.019,1,1,0,0,1-.792-1.175,16.772,16.772,0,0,1,1.142-3.351,1,1,0,0,1,1.832.823,15.171,15.171,0,0,0-1,2.912,1,1,0,0,1-.984.81" transform="translate(-9.251 -24.431)" fill="#011976"/>
        <path id="パス_10810" data-name="パス 10810" d="M21.959,74.018a1,1,0,0,1-.711-1.713,17.491,17.491,0,0,0,2.009-2.421,1,1,0,0,1,1.654,1.139,19.571,19.571,0,0,1-2.24,2.7,1.006,1.006,0,0,1-.712.3" transform="translate(-7.094 -23.51)" fill="#011976"/>
        <path id="パス_10811" data-name="パス 10811" d="M23.668,80.7a7.128,7.128,0,0,1-5.612-3.167,2.88,2.88,0,0,1-.241-2.921,3.022,3.022,0,0,1,3.061-1.3,1,1,0,0,1-.167,2c-.646-.053-1.046.107-1.143.278a1.071,1.071,0,0,0,.211.9,4.689,4.689,0,0,0,1.7,1.545,4.915,4.915,0,0,0,2.2.65,1.071,1.071,0,0,0,.88-.289c.1-.173.026-.6-.359-1.124a1,1,0,1,1,1.621-1.185,3.016,3.016,0,0,1,.488,3.293,2.879,2.879,0,0,1-2.62,1.312Z" transform="translate(-5.931 -24.813)" fill="#011976"/>
        <path id="パス_10812" data-name="パス 10812" d="M34.716,66.236A19.148,19.148,0,0,1,16.937,54.223a1,1,0,1,1,1.86-.755A17.16,17.16,0,0,0,37.435,64.015,1,1,0,1,1,37.747,66a19.561,19.561,0,0,1-3.031.237" transform="translate(-5.708 -17.888)" fill="#011976"/>
        <path id="パス_10813" data-name="パス 10813" d="M58.988,27.986a1.006,1.006,0,0,1-.926-.615A17.251,17.251,0,0,0,39.815,16.993,1,1,0,0,1,39.539,15,19.259,19.259,0,0,1,59.913,26.592a1.005,1.005,0,0,1-.925,1.394" transform="translate(-13.091 -5.017)" fill="#011976"/>
        <path id="パス_10814" data-name="パス 10814" d="M16.048,38.674a1,1,0,0,1-.99-.847,19.2,19.2,0,0,1,11.527-20.74,1,1,0,1,1,.78,1.85A17.193,17.193,0,0,0,17.041,37.512a1,1,0,0,1-.835,1.149.986.986,0,0,1-.158.013" transform="translate(-5.016 -5.757)" fill="#011976"/>
        <path id="パス_10815" data-name="パス 10815" d="M32.524,20.009a1,1,0,0,1-1-.916,21.417,21.417,0,0,0-2.97-9.167A1,1,0,0,1,30.22,8.8a23.052,23.052,0,0,1,3.305,10.114A1,1,0,0,1,32.612,20c-.03,0-.059,0-.089,0" transform="translate(-9.608 -2.831)" fill="#011976"/>
        <path id="パス_10816" data-name="パス 10816" d="M40.023,17.841a1,1,0,0,1-.9-.565A23.7,23.7,0,0,1,36.726,7.027a1,1,0,0,1,1-1.006h0a1,1,0,0,1,1,1A22.019,22.019,0,0,0,40.925,16.4a1,1,0,0,1-.9,1.443" transform="translate(-12.432 -2.038)" fill="#011976"/>
        <path id="パス_10817" data-name="パス 10817" d="M28.232,7.539a.973.973,0,0,1-.156-.013A3.4,3.4,0,0,1,25.059,5.31a3.233,3.233,0,0,1,1.049-3.115A7.684,7.684,0,0,1,29.466.324c3.017-.846,5.81.019,6.357,1.968A3.4,3.4,0,0,1,34.4,5.75a1,1,0,0,1-1.3-1.533c.575-.487.883-1.03.784-1.383-.176-.629-1.775-1.168-3.882-.577a5.743,5.743,0,0,0-2.473,1.35c-.423.427-.626.861-.542,1.16.1.355.646.658,1.393.775a1,1,0,0,1-.153,2" transform="translate(-8.451 0)" fill="#011976"/>
        <path id="パス_10818" data-name="パス 10818" d="M9.366,56.881A1,1,0,0,1,8.8,55.046a23.064,23.064,0,0,1,10.3-3.322,1,1,0,0,1,.159,2,21.264,21.264,0,0,0-9.34,2.983,1,1,0,0,1-.561.172" transform="translate(-2.83 -17.508)" fill="#011976"/>
        <path id="パス_10819" data-name="パス 10819" d="M7.026,48.934a1,1,0,0,1,0-2.008,21.963,21.963,0,0,0,9.543-2.275,1,1,0,1,1,.895,1.8A24.008,24.008,0,0,1,7.027,48.934Z" transform="translate(-2.039 -15.079)" fill="#011976"/>
        <path id="パス_10820" data-name="パス 10820" d="M4.638,57.335c-1.759,0-3.564-1.824-4.314-4.5-.846-3.017.019-5.809,1.968-6.356A3.4,3.4,0,0,1,5.75,47.9a1,1,0,0,1-1.533,1.3c-.487-.576-1.028-.882-1.383-.784-.629.177-1.167,1.776-.577,3.881s1.877,3.192,2.51,3.016c.354-.1.658-.646.775-1.393a1,1,0,1,1,1.984.309A3.4,3.4,0,0,1,5.31,57.243a2.48,2.48,0,0,1-.672.092" transform="translate(0 -15.702)" fill="#011976"/>
        <path id="パス_10821" data-name="パス 10821" d="M55.886,73.58a1,1,0,0,1-.833-.442,23.039,23.039,0,0,1-3.306-10.123,1,1,0,0,1,2-.174,21.257,21.257,0,0,0,2.969,9.173,1,1,0,0,1-.831,1.566" transform="translate(-17.516 -20.962)" fill="#011976"/>
        <path id="パス_10822" data-name="パス 10822" d="M47.973,75.831a1,1,0,0,1-1-1,22.018,22.018,0,0,0-2.2-9.383,1,1,0,1,1,1.805-.879,23.7,23.7,0,0,1,2.4,10.259,1,1,0,0,1-1,1.005Z" transform="translate(-15.122 -21.665)" fill="#011976"/>
        <path id="パス_10823" data-name="パス 10823" d="M50.567,84.049c-2.047,0-3.683-.849-4.087-2.292A3.4,3.4,0,0,1,47.9,78.3a1,1,0,1,1,1.3,1.533c-.575.487-.882,1.029-.783,1.383.176.63,1.776,1.168,3.881.577s3.192-1.881,3.016-2.51c-.1-.355-.646-.659-1.393-.775a1,1,0,0,1,.309-1.984,3.4,3.4,0,0,1,3.017,2.217c.547,1.95-1.389,4.14-4.407,4.986a8.44,8.44,0,0,1-2.269.324" transform="translate(-15.702 -25.9)" fill="#011976"/>
        <path id="パス_10824" data-name="パス 10824" d="M62.938,33.529a1,1,0,0,1-.086-2,21.407,21.407,0,0,0,9.167-2.97,1,1,0,0,1,1.123,1.665,23.033,23.033,0,0,1-10.115,3.305c-.03,0-.06,0-.089,0" transform="translate(-20.966 -9.609)" fill="#011976"/>
        <path id="パス_10825" data-name="パス 10825" d="M83.042,33H83a1,1,0,0,1-.965-1.041,6.484,6.484,0,0,0-.248-1.952,5.741,5.741,0,0,0-1.351-2.473c-.427-.424-.863-.627-1.16-.542-.355.1-.658.646-.775,1.393a1,1,0,0,1-1.984-.309,3.4,3.4,0,0,1,2.217-3.018,3.233,3.233,0,0,1,3.116,1.049,7.683,7.683,0,0,1,1.87,3.358,8.468,8.468,0,0,1,.321,2.57,1,1,0,0,1-1,.966" transform="translate(-25.899 -8.452)" fill="#011976"/>
        <path id="パス_10826" data-name="パス 10826" d="M51.18,33.565A3.465,3.465,0,1,1,54.207,31.8a3.442,3.442,0,0,1-3.027,1.767m.009-4.923a1.456,1.456,0,1,0,.712.187,1.458,1.458,0,0,0-.712-.187" transform="translate(-16.153 -9.016)" fill="#011976"/>
        <path id="パス_10827" data-name="パス 10827" d="M29.726,36.753a3.516,3.516,0,1,1,.951-.132,3.491,3.491,0,0,1-.951.132m.008-5a1.5,1.5,0,0,0-1.307.763A1.5,1.5,0,0,0,29,34.552a1.5,1.5,0,1,0,1.467-2.608,1.481,1.481,0,0,0-.73-.192" transform="translate(-8.877 -10.069)" fill="#011976"/>
        <path id="パス_10828" data-name="パス 10828" d="M37.763,56.169a3.711,3.711,0,1,1,1-.139,3.681,3.681,0,0,1-1,.139m.009-5.4A1.693,1.693,0,1,0,39.244,53.3h0a1.693,1.693,0,0,0-1.473-2.522" transform="translate(-11.533 -16.508)" fill="#011976"/>
        <path id="パス_10829" data-name="パス 10829" d="M69.585,62.66A12.327,12.327,0,1,1,81.911,50.333,12.341,12.341,0,0,1,69.585,62.66m0-22.647A10.32,10.32,0,1,0,79.9,50.333,10.331,10.331,0,0,0,69.585,40.014" transform="translate(-19.382 -12.866)" fill="#011976"/>
        <path id="パス_10830" data-name="パス 10830" d="M92.188,73.941a1,1,0,0,1-.709-.294L90.011,72.18a1,1,0,1,1,1.42-1.42L92.9,72.227a1,1,0,0,1-.71,1.714" transform="translate(-30.37 -23.854)" fill="#011976"/>
        <path id="パス_10831" data-name="パス 10831" d="M98.384,82.333a2.18,2.18,0,0,1-1.554-.644l-5.53-5.53a2.2,2.2,0,0,1,0-3.107l.993-.994a2.25,2.25,0,0,1,3.107,0l5.53,5.531a2.2,2.2,0,0,1,0,3.107l-.994.994a2.18,2.18,0,0,1-1.553.643m-4.537-8.91a.186.186,0,0,0-.134.055l-.994.994a.191.191,0,0,0,0,.268l5.531,5.53a.164.164,0,0,0,.267,0l.994-.994a.19.19,0,0,0,0-.268l-5.53-5.53a.186.186,0,0,0-.134-.056m6.374,6.563h0Z" transform="translate(-30.688 -24.182)" fill="#011976"/>
      </g>
    </g>
  </g>
</svg>
