<svg xmlns="http://www.w3.org/2000/svg" xmlns:xlink="http://www.w3.org/1999/xlink" width="100" height="100" viewBox="0 0 100 100">
  <defs>
    <clipPath id="clip-path">
      <rect id="長方形_15263" data-name="長方形 15263" width="44.082" height="69.083" fill="#011976"/>
    </clipPath>
  </defs>
  <g id="グループ_2683" data-name="グループ 2683" transform="translate(-173 -963)">
    <circle id="楕円形_26" data-name="楕円形 26" cx="50" cy="50" r="50" transform="translate(173 963)" fill="#0092e6" opacity="0.1"/>
    <g id="グループ_2534" data-name="グループ 2534" transform="translate(201.26 978.273)">
      <g id="グループ_2533" data-name="グループ 2533" transform="translate(0 0)" clip-path="url(#clip-path)">
        <path id="パス_10771" data-name="パス 10771" d="M33.725,23.134c-.206,0-.422-.01-.649-.029a12.713,12.713,0,0,1-4.865-.978,1.147,1.147,0,0,1,.875-2.122,10.4,10.4,0,0,0,3.967.8,1.4,1.4,0,0,1,.16,0c.944.085,1.316-.074,1.372-.137.026-.03.1-.187-.074-.953a2.879,2.879,0,0,1,.617-2.41,2.778,2.778,0,0,1,1.179-2.743c-1.867-2.214-1.809-3.061-1.786-3.4a1.5,1.5,0,0,1,.524-1.055,1.156,1.156,0,0,0,.041-.711C34.24,4.96,32.04,3.9,31.947,3.861a1.157,1.157,0,0,1-.582-1.508,1.139,1.139,0,0,1,1.483-.6c.138.057,3.4,1.476,4.484,7.185a3.335,3.335,0,0,1-.427,2.531,12.17,12.17,0,0,0,1.654,2.193,1.513,1.513,0,0,1,.308,1.533,2.509,2.509,0,0,1-1.386,1.356,1.963,1.963,0,0,0-.017.917,1.158,1.158,0,0,1-.407,1.133s-.37.34-.306.624a3.262,3.262,0,0,1-.442,2.969,3.246,3.246,0,0,1-2.584.944M36.855,15.2h0Zm-.094-.886Z" transform="translate(-6.708 -0.406)" fill="#011976"/>
        <path id="パス_10772" data-name="パス 10772" d="M43.809,77.19a1.148,1.148,0,0,1-.5-2.181,14.474,14.474,0,0,0,3.8-2.928,9.249,9.249,0,0,0,2.526-8.387c-1.09-5.565-4.869-6.925-8.2-8.125a14.417,14.417,0,0,1-3.3-1.489c-1.069-.746-2.255-3.041-1.639-4.559.445-1.094,1.9-1.891,4.054-1.06,1.085.421,1.561.045,1.853-.328a3.513,3.513,0,0,0,.468-3.037,5.932,5.932,0,0,0-2.032-1.09c-2.773-1.144-6.963-2.872-7.864-9.467a1.147,1.147,0,0,1,2.274-.311c.722,5.287,3.907,6.6,6.466,7.656a6.522,6.522,0,0,1,3.036,1.9c.965,1.378.7,4.181-.542,5.769A3.679,3.679,0,0,1,39.719,50.6a1.809,1.809,0,0,0-1.108-.16,2.953,2.953,0,0,0,.835,1.756,12.841,12.841,0,0,0,2.766,1.211c3.52,1.266,8.34,3,9.679,9.843,1.8,9.183-7.49,13.778-7.584,13.823a1.149,1.149,0,0,1-.5.114" transform="translate(-8.04 -8.107)" fill="#011976"/>
        <path id="パス_10773" data-name="パス 10773" d="M4.277,26.113A1.148,1.148,0,0,1,3.74,23.95c2.85-1.5,3.636-4.374,5.063-9.587.458-1.673.978-3.57,1.647-5.693C11.7,4.7,13.83,2.054,16.78.8c4.822-2.048,9.976.467,10.193.576a1.148,1.148,0,0,1-1.022,2.055c-.069-.034-4.462-2.147-8.287-.513-2.3.981-3.987,3.148-5.024,6.441-.656,2.081-1.169,3.955-1.622,5.609C9.527,20.416,8.542,24.015,4.81,25.981a1.15,1.15,0,0,1-.534.132" transform="translate(-0.763 0)" fill="#011976"/>
        <path id="パス_10774" data-name="パス 10774" d="M23.451,17.116a1.147,1.147,0,0,1-.638-2.1,16.767,16.767,0,0,0,5.321-6.234,1.147,1.147,0,0,1,2.026,1.077,19.024,19.024,0,0,1-6.074,7.066,1.146,1.146,0,0,1-.636.193" transform="translate(-5.44 -1.993)" fill="#011976"/>
        <path id="パス_10775" data-name="パス 10775" d="M12.341,32.639A16.467,16.467,0,0,1,3.62,30.046a1.147,1.147,0,0,1,1.309-1.885c.067.046,5.466,3.681,11.627,1.433a19.437,19.437,0,0,0,1.1-11.239,1.147,1.147,0,0,1,2.244-.481,21.29,21.29,0,0,1-1.468,13.144,1.147,1.147,0,0,1-.59.541,14.481,14.481,0,0,1-5.5,1.08" transform="translate(-0.763 -4.139)" fill="#011976"/>
        <path id="パス_10776" data-name="パス 10776" d="M13.356,79.164a1.148,1.148,0,0,1-1.046-.674c-.868-1.915-.481-5.24-.227-6.81A36.382,36.382,0,0,1,.613,60.063a4.092,4.092,0,0,1-.329-3.653,32.874,32.874,0,0,1,12.485-14.92,1.148,1.148,0,0,1,1.173,1.973A31.1,31.1,0,0,0,2.417,57.258a1.787,1.787,0,0,0,.147,1.6,33.548,33.548,0,0,0,11.35,11.235,1.148,1.148,0,0,1,.566,1.232c-.348,1.706-.677,4.9-.079,6.222a1.148,1.148,0,0,1-1.044,1.622" transform="translate(0 -10.082)" fill="#011976"/>
        <path id="パス_10777" data-name="パス 10777" d="M16.543,67.982a1.14,1.14,0,0,1-.692-.233c-2.524-1.912-5.123-6.93-5.233-7.143a1.149,1.149,0,0,1,.125-1.243l4.905-6.123a1.148,1.148,0,0,1,1.791,1.435l-4.431,5.532c.9,1.626,2.714,4.566,4.229,5.712a1.148,1.148,0,0,1-.694,2.063" transform="translate(-2.559 -12.882)" fill="#011976"/>
      </g>
    </g>
  </g>
</svg>
